if (_typeface_js && _typeface_js.loadFace) _typeface_js.loadFace({"glyphs":{"¦":{"x_min":116.671875,"x_max":272.21875,"ha":389,"o":"m 116 486 l 272 486 l 272 972 l 116 972 l 116 486 m 116 -208 l 272 -208 l 272 277 l 116 277 l 116 -208 "},"":{"x_min":-126.390625,"x_max":512.5,"ha":386,"o":"m 204 1283 l 30 1283 l 202 1083 l 316 1083 l 204 1283 m 29 1238 l -126 1238 l -126 1083 l 29 1083 l 29 1238 m 512 1238 l 356 1238 l 356 1083 l 512 1083 l 512 1238 "},"Ѣ":{"x_min":122.21875,"x_max":1033.328125,"ha":1081,"o":"m 333 0 l 705 0 b 1033 301 763 0 1033 0 b 675 604 1033 604 763 604 l 541 604 l 541 731 l 811 731 l 811 895 l 541 895 l 541 997 l 333 997 l 333 895 l 122 895 l 122 731 l 333 731 l 333 0 m 541 440 l 644 440 b 825 305 730 440 825 430 b 652 172 825 186 727 172 l 541 172 l 541 440 "},"Ž":{"x_min":34.96875,"x_max":814.03125,"ha":849,"o":"m 814 176 l 289 176 l 811 833 l 811 997 l 48 997 l 48 820 l 550 820 l 34 176 l 34 0 l 814 0 l 814 176 m 669 1299 l 512 1299 l 423 1185 l 336 1299 l 179 1299 l 337 1097 l 511 1097 l 669 1299 "},"Á":{"x_min":28,"x_max":975,"ha":1003,"o":"m 316 205 l 684 205 l 748 0 l 975 0 l 623 997 l 383 997 l 28 0 l 247 0 l 316 205 m 500 772 l 502 772 l 626 377 l 372 377 l 500 772 m 765 1300 l 551 1300 l 420 1097 l 561 1097 l 765 1300 "},"е":{"x_min":36.109375,"x_max":736.109375,"ha":772,"o":"m 736 309 b 386 761 736 581 648 761 b 36 377 138 761 36 579 b 391 -22 36 88 194 -22 b 726 219 622 -22 726 137 l 527 219 b 402 133 512 165 456 133 b 229 309 245 133 229 269 l 736 309 m 236 437 b 386 605 236 568 322 605 b 536 437 450 605 536 568 l 236 437 "},"":{"x_min":-33.328125,"x_max":419.4375,"ha":386,"o":"m 419 1083 b 193 1283 419 1226 327 1283 b -33 1083 58 1283 -33 1226 l 44 1083 b 193 1175 56 1147 118 1175 b 341 1083 268 1175 329 1147 l 419 1083 "},"Î":{"x_min":-51.390625,"x_max":438.890625,"ha":386,"o":"m 297 997 l 88 997 l 88 0 l 297 0 l 297 997 m 280 1299 l 106 1299 l -51 1097 l 105 1097 l 193 1211 l 281 1097 l 438 1097 l 280 1299 "},"e":{"x_min":32,"x_max":733.390625,"ha":772,"o":"m 525 216 b 400 136 509 163 454 136 b 226 316 243 136 232 261 l 733 316 l 733 351 b 386 758 733 688 532 758 b 32 384 62 758 32 473 b 400 -19 32 80 191 -19 b 725 216 526 -19 673 38 l 525 216 m 232 443 b 383 598 243 540 291 598 b 533 443 445 598 522 562 l 232 443 "},"»":{"x_min":122.03125,"x_max":649.984375,"ha":772,"o":"m 556 388 l 417 266 l 417 105 l 649 305 l 649 472 l 417 672 l 417 511 l 556 388 m 260 388 l 122 266 l 122 105 l 354 305 l 354 472 l 122 672 l 122 511 l 260 388 "},"∆":{"x_min":0,"x_max":833,"ha":833,"o":"m 594 155 l 177 155 l 412 690 l 594 155 m 0 0 l 833 0 l 444 991 l 0 0 "},"Ѓ":{"x_min":113.6875,"x_max":784.515625,"ha":803,"o":"m 113 0 l 322 0 l 322 825 l 784 825 l 784 997 l 113 997 l 113 0 m 309 1083 l 448 1083 l 653 1283 l 438 1283 l 309 1083 "},"ў":{"x_min":19,"x_max":752,"ha":772,"o":"m 752 738 l 546 738 l 395 194 l 392 194 l 234 738 l 19 738 l 289 -38 b 181 -138 289 -69 263 -138 b 124 -134 166 -138 139 -136 l 124 -290 b 199 -294 155 -293 174 -294 b 497 12 389 -294 410 -241 l 752 738 m 534 1048 b 385 956 521 984 460 956 b 236 1048 310 956 249 984 l 159 1048 b 385 848 159 905 250 848 b 611 1048 520 848 611 905 l 534 1048 "},"ò":{"x_min":47.21875,"x_max":802.78125,"ha":849,"o":"m 802 369 b 425 758 802 636 623 758 b 47 369 226 758 47 636 b 425 -19 47 102 226 -19 b 802 369 623 -19 802 102 m 602 369 b 425 144 602 275 575 144 b 247 369 275 144 247 275 b 425 594 247 463 275 594 b 602 369 575 594 602 463 m 365 838 l 505 838 l 375 1041 l 161 1041 l 365 838 "},"^":{"x_min":86.109375,"x_max":725,"ha":811,"o":"m 237 448 l 405 814 l 572 448 l 725 448 l 475 969 l 336 969 l 86 448 l 237 448 "},"«":{"x_min":122.21875,"x_max":650,"ha":772,"o":"m 354 511 l 354 672 l 122 472 l 122 305 l 354 105 l 354 266 l 215 388 l 354 511 m 650 511 l 650 672 l 418 472 l 418 305 l 650 105 l 650 266 l 511 388 l 650 511 "},"∙":{"x_min":80.5625,"x_max":305.5625,"ha":386,"o":"m 80 351 b 193 238 80 290 127 238 b 305 351 258 238 305 290 b 193 463 305 413 255 463 b 80 351 130 463 80 413 "},"к":{"x_min":97.21875,"x_max":833.328125,"ha":849,"o":"m 97 0 l 288 0 l 288 213 l 370 293 l 583 0 l 833 0 l 515 431 l 820 738 l 565 738 l 288 458 l 288 738 l 97 738 l 97 0 "},"í":{"x_min":95.953125,"x_max":457.0625,"ha":386,"o":"m 95 738 l 95 0 l 290 0 l 290 738 l 95 738 m 457 1041 l 243 1041 l 112 838 l 252 838 l 457 1041 "},"ˆ":{"x_min":-14,"x_max":476.28125,"ha":463,"o":"m 317 1041 l 144 1041 l -14 839 l 142 839 l 230 953 l 319 839 l 476 839 l 317 1041 "},"µ":{"x_min":90.28125,"x_max":758.328125,"ha":849,"o":"m 758 0 l 758 739 l 563 739 l 563 340 b 412 144 563 185 476 144 b 284 308 352 144 284 172 l 284 739 l 90 739 l 90 -287 l 284 -287 l 284 60 b 412 -18 313 0 361 -18 b 569 104 486 -18 534 25 l 572 104 l 572 0 l 758 0 "},"’":{"x_min":95.828125,"x_max":290.28125,"ha":386,"o":"m 95 820 l 202 820 b 100 688 200 768 191 718 l 100 618 b 290 855 179 634 290 680 l 290 997 l 95 997 l 95 820 "},"-":{"x_min":37.5,"x_max":425,"ha":463,"o":"m 425 479 l 37 479 l 37 298 l 425 298 l 425 479 "},"ѕ":{"x_min":46,"x_max":726.5625,"ha":772,"o":"m 701 515 b 382 761 684 733 498 761 b 71 511 123 761 71 606 b 298 300 71 375 184 326 b 526 197 475 259 526 251 b 394 122 526 136 452 122 b 246 236 264 122 246 187 l 46 236 b 382 -22 64 36 211 -22 b 726 230 450 -22 726 -22 b 494 443 726 375 616 413 b 262 543 309 486 262 500 b 382 616 262 616 357 616 b 509 515 494 616 504 552 l 701 515 "},"Q":{"x_min":60.828125,"x_max":1023.328125,"ha":1081,"o":"m 552 271 l 652 176 b 540 150 615 157 574 150 b 269 498 427 150 269 219 b 540 847 269 778 427 847 b 810 498 652 847 810 778 b 765 284 810 405 792 336 l 659 383 l 552 271 m 1023 40 l 915 143 b 1019 498 976 221 1019 334 b 540 1023 1019 966 671 1023 b 60 498 408 1023 60 966 b 540 -26 60 30 408 -26 b 795 40 598 -26 701 -15 l 913 -71 l 1023 40 "},"Ш":{"x_min":97.21875,"x_max":1213.890625,"ha":1311,"o":"m 97 0 l 1213 0 l 1213 997 l 1022 997 l 1022 172 l 751 172 l 751 997 l 559 997 l 559 172 l 288 172 l 288 997 l 97 997 l 97 0 "},"M":{"x_min":95.828125,"x_max":1062.5,"ha":1157,"o":"m 1062 997 l 761 997 l 583 211 l 580 211 l 400 997 l 95 997 l 95 0 l 290 0 l 290 833 l 293 833 l 475 0 l 679 0 l 865 833 l 868 833 l 868 0 l 1062 0 l 1062 997 "},"ј":{"x_min":2.78125,"x_max":288.890625,"ha":386,"o":"m 97 -70 b 48 -138 97 -122 79 -138 l 2 -138 l 2 -290 b 87 -294 33 -293 61 -294 b 288 -77 209 -294 288 -258 l 288 738 l 97 738 l 97 -70 m 97 848 l 288 848 l 288 1029 l 97 1029 l 97 848 "},"œ":{"x_min":47.921875,"x_max":1267.390625,"ha":1311,"o":"m 1059 216 b 934 136 1043 164 988 136 b 760 316 777 136 765 261 l 1267 316 l 1267 351 b 920 757 1267 688 1066 757 b 679 646 792 757 731 699 b 425 757 627 710 527 757 b 47 369 227 757 47 635 b 425 -18 47 103 227 -18 b 667 83 564 -18 632 40 b 934 -18 709 40 768 -18 b 1259 216 1060 -18 1207 39 l 1059 216 m 603 369 b 425 144 603 275 575 144 b 247 369 275 144 247 275 b 425 594 247 463 275 594 b 603 369 575 594 603 463 m 766 442 b 917 598 777 540 825 598 b 1067 442 979 598 1056 562 l 766 442 "},"{":{"x_min":66.671875,"x_max":506.9375,"ha":540,"o":"m 506 -150 l 444 -150 b 366 -58 373 -150 366 -100 l 366 213 b 208 363 352 331 252 359 l 208 366 b 366 516 252 370 352 398 l 366 788 b 444 880 366 830 373 880 l 506 880 l 506 1002 l 391 1002 b 197 812 304 1002 197 943 l 197 534 b 66 429 197 448 105 429 l 66 301 b 197 195 105 301 197 281 l 197 -81 b 391 -272 197 -212 304 -272 l 506 -272 l 506 -150 "},"¼":{"x_min":36.21875,"x_max":1063.75,"ha":1158,"o":"m 708 218 l 867 472 l 870 472 b 867 218 870 454 867 361 l 708 218 m 994 588 l 844 588 l 608 227 l 608 125 l 862 125 l 862 0 l 994 0 l 994 125 l 1063 125 l 1063 220 l 994 220 l 994 588 m 189 -26 l 298 -26 l 891 986 l 783 986 l 189 -26 m 36 797 l 189 797 l 189 393 l 329 393 l 329 986 l 211 986 b 54 883 208 941 176 883 l 36 883 l 36 797 "},"#":{"x_min":25,"x_max":747,"ha":772,"o":"m 706 401 l 572 401 l 595 568 l 730 568 l 747 693 l 612 693 l 651 969 l 520 969 l 481 693 l 347 693 l 386 969 l 255 969 l 216 693 l 81 693 l 65 568 l 199 568 l 176 401 l 41 401 l 25 276 l 159 276 l 120 0 l 251 0 l 290 276 l 424 276 l 386 0 l 516 0 l 555 276 l 690 276 l 706 401 m 465 568 l 441 401 l 306 401 l 330 568 l 465 568 "},"Ê":{"x_min":105.90625,"x_max":862.84375,"ha":926,"o":"m 839 997 l 105 997 l 105 0 l 862 0 l 862 176 l 310 176 l 310 434 l 796 434 l 796 611 l 310 611 l 310 820 l 839 820 l 839 997 m 550 1299 l 376 1299 l 218 1097 l 375 1097 l 462 1211 l 551 1097 l 708 1097 l 550 1299 "},"Џ":{"x_min":97.21875,"x_max":905.5625,"ha":1003,"o":"m 97 0 l 411 0 l 411 -213 l 591 -213 l 591 0 l 905 0 l 905 997 l 697 997 l 697 180 l 305 180 l 305 997 l 97 997 l 97 0 "},")":{"x_min":26.390625,"x_max":413.890625,"ha":463,"o":"m 26 1019 b 213 368 127 843 213 655 b 26 -288 213 80 133 -106 l 169 -288 b 413 368 298 -116 413 97 b 169 1019 413 638 293 852 l 26 1019 "},"э":{"x_min":47.21875,"x_max":725,"ha":772,"o":"m 341 301 l 525 301 b 377 141 516 212 468 141 b 247 270 288 141 247 222 l 47 270 b 377 -22 47 195 118 -22 b 725 369 602 -22 725 118 b 386 761 725 620 595 761 b 55 477 250 761 73 700 l 255 477 b 386 597 270 555 302 597 b 525 429 476 597 518 518 l 341 429 l 341 301 "},"":{"x_min":-36.4375,"x_max":308,"ha":386,"o":"m 169 1083 l 308 1083 l 177 1283 l -36 1283 l 169 1083 "},"Å":{"x_min":27.921875,"x_max":975.140625,"ha":1003,"o":"m 316 205 l 684 205 l 748 0 l 975 0 l 623 997 l 383 997 l 27 0 l 247 0 l 316 205 m 500 772 l 502 772 l 626 377 l 372 377 l 500 772 m 652 1191 b 502 1336 652 1279 572 1336 b 352 1191 433 1336 352 1279 b 502 1047 352 1104 433 1047 b 652 1191 572 1047 652 1104 m 575 1191 b 502 1119 575 1151 543 1119 b 430 1191 462 1119 430 1151 b 502 1263 430 1231 462 1263 b 575 1191 543 1263 575 1231 "},"":{"x_min":-33.328125,"x_max":419.4375,"ha":386,"o":"m 419 848 b 193 1048 419 991 327 1048 b -33 848 58 1048 -33 991 l 44 848 b 193 940 56 912 118 940 b 341 848 268 940 329 912 l 419 848 "},"Ѵ":{"x_min":38.890625,"x_max":963.890625,"ha":1003,"o":"m 379 0 l 590 0 l 819 744 b 912 858 841 820 856 858 b 963 850 936 858 950 854 l 963 1005 b 848 1022 934 1013 888 1022 b 640 815 716 1022 677 956 l 493 266 l 490 266 l 280 997 l 38 997 l 379 0 "},"ш":{"x_min":91.671875,"x_max":1066.671875,"ha":1158,"o":"m 91 0 l 1066 0 l 1066 738 l 875 738 l 875 155 l 675 155 l 675 738 l 483 738 l 483 155 l 283 155 l 283 738 l 91 738 l 91 0 "},"Я":{"x_min":47.03125,"x_max":908.140625,"ha":1006,"o":"m 908 997 l 491 997 b 183 926 383 997 266 997 b 81 704 124 877 81 797 b 152 520 81 629 109 563 b 242 466 185 486 216 476 b 94 241 123 429 106 358 l 84 147 b 47 0 74 62 74 51 l 263 0 b 288 133 272 22 281 45 l 295 227 b 520 393 309 393 394 393 l 706 393 l 706 0 l 908 0 l 908 997 m 706 556 l 472 556 b 290 686 410 556 290 556 b 370 811 290 763 334 797 b 472 822 399 822 460 822 l 706 822 l 706 556 "},"¸":{"x_min":8.203125,"x_max":340.140625,"ha":463,"o":"m 72 -116 l 101 -144 b 156 -133 119 -138 141 -133 b 210 -183 184 -133 210 -151 b 145 -237 210 -217 174 -237 b 38 -215 116 -237 74 -226 l 8 -281 b 167 -316 84 -309 115 -316 b 340 -178 269 -316 340 -259 b 219 -70 340 -91 258 -70 b 177 -76 202 -70 194 -72 l 230 0 l 151 0 l 72 -116 "},"a":{"x_min":39.953125,"x_max":731.625,"ha":772,"o":"m 688 544 b 394 758 688 726 498 758 b 63 500 242 758 85 726 l 251 500 b 370 603 256 543 273 603 b 498 517 420 603 498 599 b 430 458 498 475 460 463 l 255 432 b 39 196 131 414 39 340 b 264 -18 39 43 153 -18 b 503 88 396 -18 459 42 b 521 0 508 46 510 35 l 731 0 l 731 29 b 688 144 708 38 688 57 l 688 544 m 498 265 b 324 119 498 175 410 119 b 234 208 287 119 234 140 b 366 319 234 289 294 307 b 498 360 446 332 478 344 l 498 265 "},"=":{"x_min":55.5625,"x_max":755.5625,"ha":811,"o":"m 755 581 l 55 581 l 55 426 l 755 426 l 755 581 m 755 276 l 55 276 l 55 120 l 755 120 l 755 276 "},"Ћ":{"x_min":15.28125,"x_max":1009.71875,"ha":1110,"o":"m 15 825 l 268 825 l 268 0 l 476 0 l 476 431 l 662 431 b 801 309 752 431 801 405 l 801 0 l 1009 0 l 1009 325 b 700 604 1009 561 886 604 l 476 604 l 476 825 l 795 825 l 795 997 l 15 997 l 15 825 "},"˚":{"x_min":81.9375,"x_max":381.9375,"ha":463,"o":"m 381 933 b 231 1077 381 1020 301 1077 b 81 933 162 1077 81 1020 b 231 788 81 845 162 788 b 381 933 301 788 381 845 m 304 933 b 231 861 304 893 272 861 b 159 933 191 861 159 893 b 231 1005 159 973 191 1005 b 304 933 272 1005 304 973 "},"ú":{"x_min":91.890625,"x_max":757.15625,"ha":849,"o":"m 757 738 l 562 738 l 562 312 b 412 144 562 180 476 144 b 286 280 353 144 286 166 l 286 738 l 91 738 l 91 252 b 343 -19 91 63 197 -19 b 568 104 446 -19 523 25 l 571 104 l 571 0 l 757 0 l 757 738 m 687 1041 l 473 1041 l 343 838 l 483 838 l 687 1041 "},"д":{"x_min":20.828125,"x_max":880.5625,"ha":901,"o":"m 20 -177 l 201 -177 l 201 0 l 700 0 l 700 -177 l 880 -177 l 880 155 l 794 155 l 794 738 l 216 738 b 104 155 209 641 194 404 l 20 155 l 20 -177 m 297 155 b 383 583 354 326 375 506 l 602 583 l 602 155 l 297 155 "},"¯":{"x_min":-8.328125,"x_max":470.828125,"ha":463,"o":"m 470 941 l -8 941 l -8 838 l 470 838 l 470 941 "},"Z":{"x_min":34.9375,"x_max":814.0625,"ha":849,"o":"m 814 176 l 289 176 l 811 833 l 811 997 l 48 997 l 48 820 l 550 820 l 34 176 l 34 0 l 814 0 l 814 176 "},"u":{"x_min":91.671875,"x_max":756.953125,"ha":849,"o":"m 756 738 l 562 738 l 562 312 b 412 144 562 180 476 144 b 286 280 352 144 286 166 l 286 738 l 91 738 l 91 252 b 343 -19 91 63 197 -19 b 568 104 445 -19 523 25 l 570 104 l 570 0 l 756 0 l 756 738 "},"":{"x_min":-153,"x_max":480.171875,"ha":386,"o":"m 351 1283 l 135 1283 l 341 1083 l 480 1083 l 351 1283 m 62 1283 l -153 1283 l 52 1083 l 191 1083 l 62 1283 "},"k":{"x_min":95.828125,"x_max":780.5625,"ha":772,"o":"m 290 233 l 370 316 l 547 0 l 780 0 l 512 452 l 773 738 l 534 738 l 290 458 l 290 997 l 95 997 l 95 0 l 290 0 l 290 233 "},"Ù":{"x_min":100,"x_max":904.171875,"ha":1003,"o":"m 904 997 l 691 997 l 691 340 b 490 150 691 219 633 150 b 312 350 393 150 312 211 l 312 997 l 100 997 l 100 336 b 177 94 102 236 123 155 b 494 -26 266 -4 402 -26 b 904 348 745 -26 904 86 l 904 997 m 443 1097 l 583 1097 l 452 1300 l 238 1300 l 443 1097 "},"З":{"x_min":41.671875,"x_max":806.953125,"ha":849,"o":"m 387 444 l 436 444 b 598 295 502 444 598 420 b 422 138 598 216 544 138 b 233 290 287 138 252 237 l 41 290 b 420 -25 83 41 269 -25 b 806 291 690 -25 806 118 b 620 541 806 490 680 526 l 620 544 b 773 747 744 584 773 677 b 444 1022 773 872 698 1022 b 70 709 105 1022 79 790 l 262 709 b 427 858 266 741 280 858 b 573 719 480 858 573 830 b 430 588 573 633 508 588 b 387 593 416 588 401 591 l 387 444 "},"¢":{"x_min":47,"x_max":727.5625,"ha":772,"o":"m 299 179 b 247 380 248 230 247 325 b 401 594 247 472 278 594 l 417 594 l 299 179 m 727 474 b 530 735 715 628 624 703 l 569 872 l 497 872 l 463 754 b 401 758 441 756 420 758 b 47 348 151 758 47 587 b 249 3 47 223 88 63 l 202 -163 l 274 -163 l 317 -13 b 388 -18 340 -17 363 -18 b 726 269 659 -18 719 193 l 528 269 b 397 140 528 235 495 140 b 362 146 383 140 372 142 l 483 569 b 530 474 512 544 524 503 l 727 474 "},"é":{"x_min":32,"x_max":733,"ha":772,"o":"m 524 216 b 399 136 509 163 454 136 b 226 316 243 136 231 261 l 733 316 l 733 351 b 386 758 733 688 531 758 b 32 384 62 758 32 473 b 399 -19 32 80 191 -19 b 724 216 526 -19 673 38 l 524 216 m 232 443 b 383 598 243 540 291 598 b 533 443 445 598 522 562 l 232 443 m 649 1041 l 435 1041 l 305 838 l 445 838 l 649 1041 "},"B":{"x_min":105.625,"x_max":929.25,"ha":1003,"o":"m 105 0 l 527 0 b 843 90 732 0 786 34 b 929 295 895 141 929 216 b 775 537 929 394 897 491 b 897 741 816 558 897 598 b 590 997 897 844 834 997 l 105 997 l 105 0 m 305 438 l 570 438 b 720 318 645 438 720 405 b 561 172 720 216 662 172 l 305 172 l 305 438 m 305 825 l 544 825 b 697 718 638 825 697 800 b 550 606 697 638 632 606 l 305 606 l 305 825 "},"…":{"x_min":127.78125,"x_max":1261.109375,"ha":1389,"o":"m 336 202 l 127 202 l 127 0 l 336 0 l 336 202 m 798 202 l 590 202 l 590 0 l 798 0 l 798 202 m 1261 202 l 1052 202 l 1052 0 l 1261 0 l 1261 202 "},"В":{"x_min":114.46875,"x_max":942.25,"ha":1003,"o":"m 114 0 l 571 0 b 942 298 796 0 942 105 b 788 537 942 383 921 487 b 910 741 875 581 910 641 b 603 997 910 847 847 997 l 114 997 l 114 0 m 314 440 l 568 440 b 733 306 650 440 733 422 b 574 172 733 215 665 172 l 314 172 l 314 440 m 314 825 l 576 825 b 710 718 650 825 710 802 b 571 604 710 636 643 604 l 314 604 l 314 825 "},"І":{"x_min":88.890625,"x_max":297.21875,"ha":386,"o":"m 88 0 l 297 0 l 297 997 l 88 997 l 88 0 "},"H":{"x_min":98.609375,"x_max":904.171875,"ha":1003,"o":"m 695 447 l 695 0 l 904 0 l 904 997 l 695 997 l 695 619 l 306 619 l 306 997 l 98 997 l 98 0 l 306 0 l 306 447 l 695 447 "},"î":{"x_min":-51.390625,"x_max":438.890625,"ha":386,"o":"m 95 739 l 95 0 l 290 0 l 290 739 l 95 739 m 280 1041 l 106 1041 l -51 839 l 105 839 l 193 953 l 281 839 l 438 839 l 280 1041 "},"":{"x_min":-33.328125,"x_max":419.4375,"ha":386,"o":"m 341 1283 b 193 1191 329 1219 268 1191 b 44 1283 118 1191 56 1219 l -33 1283 b 193 1083 -33 1140 58 1083 b 419 1283 327 1083 419 1140 l 341 1283 "},"−":{"x_min":55.5625,"x_max":755.5625,"ha":811,"o":"m 755 273 l 755 429 l 55 429 l 55 273 l 755 273 "},"≠":{"x_min":65.03125,"x_max":767.96875,"ha":833,"o":"m 65 120 l 198 120 l 123 0 l 278 0 l 353 120 l 767 120 l 767 276 l 449 276 l 541 426 l 767 426 l 767 581 l 637 581 l 711 702 l 555 702 l 481 581 l 65 581 l 65 426 l 385 426 l 294 276 l 65 276 l 65 120 "},"¥":{"x_min":-12.28125,"x_max":784.9375,"ha":772,"o":"m 762 562 l 576 562 l 784 968 l 587 968 l 396 560 l 196 968 l -12 968 l 203 562 l 21 562 l 21 478 l 247 478 l 303 374 l 21 374 l 21 291 l 303 291 l 303 0 l 479 0 l 479 291 l 762 291 l 762 374 l 480 374 l 533 478 l 762 478 l 762 562 "},"U":{"x_min":100,"x_max":904.171875,"ha":1003,"o":"m 904 997 l 691 997 l 691 340 b 490 150 691 219 633 150 b 312 350 393 150 312 211 l 312 997 l 100 997 l 100 336 b 177 94 102 236 123 155 b 494 -26 266 -4 402 -26 b 904 348 745 -26 904 86 l 904 997 "},"Ñ":{"x_min":95.65625,"x_max":908.15625,"ha":1003,"o":"m 713 302 l 710 302 l 315 997 l 95 997 l 95 0 l 290 0 l 290 711 l 292 711 l 699 0 l 908 0 l 908 997 l 713 997 l 713 302 m 666 1281 b 601 1226 660 1258 647 1226 b 515 1250 581 1226 562 1231 b 415 1276 467 1268 447 1276 b 287 1211 352 1276 313 1247 b 247 1105 262 1175 252 1133 l 335 1105 b 401 1165 338 1120 352 1165 b 499 1137 424 1165 455 1151 b 605 1115 524 1129 574 1115 b 756 1281 720 1115 749 1240 l 666 1281 "},"F":{"x_min":105.5625,"x_max":815.28125,"ha":849,"o":"m 313 419 l 752 419 l 752 595 l 313 595 l 313 820 l 815 820 l 815 997 l 105 997 l 105 0 l 313 0 l 313 419 "},"*":{"x_min":37.5,"x_max":502.78125,"ha":540,"o":"m 469 879 l 329 831 l 329 997 l 211 997 l 211 831 l 69 879 l 37 777 l 181 733 l 87 598 l 175 537 l 270 663 l 365 537 l 452 598 l 356 733 l 502 777 l 469 879 "},"†":{"x_min":50,"x_max":722.21875,"ha":772,"o":"m 722 693 l 479 693 l 479 997 l 293 997 l 293 693 l 50 693 l 50 537 l 293 537 l 293 -237 l 479 -237 l 479 537 l 722 537 l 722 693 "},"Ќ":{"x_min":120.828125,"x_max":1002.78125,"ha":1003,"o":"m 386 1083 l 525 1083 l 730 1283 l 515 1283 l 386 1083 m 120 0 l 329 0 l 329 337 l 430 441 l 738 0 l 1002 0 l 572 588 l 979 997 l 709 997 l 329 591 l 329 997 l 120 997 l 120 0 "},"∕":{"x_min":-236,"x_max":467,"ha":232,"o":"m 467 986 l 358 986 l -236 -26 l -126 -26 l 467 986 "},"°":{"x_min":79.171875,"x_max":476.390625,"ha":556,"o":"m 79 790 b 277 591 79 680 168 591 b 476 790 387 591 476 680 b 277 988 476 900 387 988 b 79 790 168 988 79 900 m 156 790 b 277 911 156 856 211 911 b 398 790 344 911 398 856 b 277 669 398 723 344 669 b 156 790 211 669 156 723 "},"å":{"x_min":39.953125,"x_max":731.625,"ha":772,"o":"m 688 544 b 394 758 688 726 498 758 b 63 500 242 758 85 726 l 251 500 b 370 603 256 543 273 603 b 498 517 420 603 498 599 b 430 458 498 475 460 463 l 255 432 b 39 196 131 414 39 340 b 264 -18 39 43 153 -18 b 503 88 396 -18 459 42 b 521 0 508 46 510 35 l 731 0 l 731 29 b 688 144 708 38 688 57 l 688 544 m 498 265 b 324 119 498 175 410 119 b 234 208 287 119 234 140 b 366 319 234 289 294 307 b 498 360 446 332 478 344 l 498 265 m 537 933 b 387 1078 537 1021 456 1078 b 237 933 317 1078 237 1021 b 387 789 237 846 317 789 b 537 933 456 789 537 846 m 459 933 b 387 861 459 893 427 861 b 314 933 346 861 314 893 b 387 1006 314 974 346 1006 b 459 933 427 1006 459 974 "},"0":{"x_min":44.4375,"x_max":727.78125,"ha":772,"o":"m 44 480 b 386 -26 44 134 154 -26 b 727 480 618 -26 727 134 b 386 986 727 826 618 986 b 44 480 154 986 44 826 m 244 480 b 386 830 244 734 275 830 b 527 480 497 830 527 734 b 386 129 527 226 497 129 b 244 480 275 129 244 226 "},"”":{"x_min":88.890625,"x_max":605.5625,"ha":694,"o":"m 88 820 l 195 820 b 93 688 193 768 184 718 l 93 618 b 283 855 172 634 283 680 l 283 997 l 88 997 l 88 820 m 411 820 l 518 820 b 415 688 515 768 506 718 l 415 618 b 605 855 494 634 605 680 l 605 997 l 411 997 l 411 820 "},"ö":{"x_min":47.21875,"x_max":802.78125,"ha":849,"o":"m 802 369 b 425 758 802 636 623 758 b 47 369 226 758 47 636 b 425 -19 47 102 226 -19 b 802 369 623 -19 802 102 m 602 369 b 425 144 602 275 575 144 b 247 369 275 144 247 275 b 425 594 247 463 275 594 b 602 369 575 594 602 463 m 376 1012 l 201 1012 l 201 852 l 376 852 l 376 1012 m 647 1012 l 472 1012 l 472 852 l 647 852 l 647 1012 "},"Õ":{"x_min":61.109375,"x_max":1019.453125,"ha":1081,"o":"m 61 498 b 540 -26 61 30 408 -26 b 1019 498 672 -26 1019 30 b 540 1023 1019 966 672 1023 b 61 498 408 1023 61 966 m 269 498 b 540 847 269 777 427 847 b 811 498 652 847 811 777 b 540 150 811 219 652 150 b 269 498 427 150 269 219 m 705 1281 b 640 1226 700 1258 686 1226 b 554 1250 620 1226 601 1231 b 454 1276 506 1268 486 1276 b 326 1211 391 1276 352 1247 b 286 1105 301 1175 291 1133 l 375 1105 b 440 1165 377 1120 391 1165 b 538 1137 463 1165 494 1151 b 644 1115 563 1129 613 1115 b 795 1281 759 1115 788 1240 l 705 1281 "},"№":{"x_min":12.5,"x_max":1376.390625,"ha":1389,"o":"m 1195 530 b 1112 408 1195 475 1181 408 b 1029 530 1041 408 1029 476 b 1112 652 1029 583 1044 652 b 1195 530 1179 652 1195 583 m 1112 252 b 1376 530 1287 252 1376 362 b 1112 808 1376 694 1284 808 b 848 530 947 808 848 694 b 1112 252 848 362 944 252 m 12 0 l 204 0 l 204 665 l 206 665 l 563 0 l 768 0 l 768 997 l 576 997 l 576 333 l 573 333 l 222 997 l 12 997 l 12 0 m 865 27 l 1359 27 l 1359 163 l 865 163 l 865 27 "},"þ":{"x_min":86.109375,"x_max":802.78125,"ha":849,"o":"m 272 352 b 437 590 272 470 304 590 b 602 363 561 590 602 480 b 443 140 602 276 568 140 b 272 352 319 140 272 243 m 280 94 l 283 94 b 491 -19 306 54 355 -19 b 802 377 711 -19 802 175 b 495 758 802 633 658 758 b 283 644 368 758 311 687 l 280 644 l 280 997 l 86 997 l 86 -288 l 280 -288 l 280 94 "},"]":{"x_min":33.328125,"x_max":375,"ha":463,"o":"m 205 -138 l 33 -138 l 33 -272 l 375 -272 l 375 1002 l 33 1002 l 33 869 l 205 869 l 205 -138 "},"А":{"x_min":28,"x_max":975,"ha":1003,"o":"m 28 0 l 247 0 l 316 205 l 684 205 l 748 0 l 975 0 l 622 997 l 384 997 l 28 0 m 500 772 l 502 772 l 626 377 l 372 377 l 500 772 "},"Ы":{"x_min":113.890625,"x_max":1222.21875,"ha":1311,"o":"m 1013 0 l 1222 0 l 1222 997 l 1013 997 l 1013 0 m 322 440 l 490 440 b 670 305 576 440 670 430 b 498 172 670 186 573 172 l 322 172 l 322 440 m 113 0 l 551 0 b 879 301 609 0 879 0 b 520 604 879 604 609 604 l 322 604 l 322 997 l 113 997 l 113 0 "},"8":{"x_min":44.375,"x_max":727,"ha":772,"o":"m 387 586 b 260 708 303 586 260 650 b 394 830 260 780 306 830 b 507 708 456 830 507 783 b 387 586 507 637 463 586 m 727 293 b 579 530 727 420 674 483 b 693 729 658 572 693 644 b 381 986 693 865 585 986 b 74 716 209 986 74 884 b 194 523 74 625 116 562 b 44 273 44 454 44 323 b 385 -26 44 138 131 -26 b 727 293 646 -26 727 168 m 527 284 b 387 129 527 216 488 129 b 244 286 298 129 244 191 b 382 438 244 393 312 438 b 527 284 491 438 527 354 "},"R":{"x_min":105.921875,"x_max":940.640625,"ha":1003,"o":"m 105 0 l 310 0 l 310 390 l 525 390 b 687 201 679 390 687 337 b 710 0 687 98 696 47 l 940 0 l 940 26 b 896 225 896 43 896 79 b 769 477 896 411 851 441 b 923 715 868 511 923 605 b 610 997 923 801 875 997 l 105 997 l 105 0 m 310 558 l 310 825 l 569 825 b 715 694 692 825 715 747 b 554 558 715 595 662 558 l 310 558 "},"o":{"x_min":47.21875,"x_max":802.78125,"ha":849,"o":"m 802 369 b 425 758 802 636 623 758 b 47 369 226 758 47 636 b 425 -19 47 102 226 -19 b 802 369 623 -19 802 102 m 602 369 b 425 144 602 275 575 144 b 247 369 275 144 247 275 b 425 594 247 463 275 594 b 602 369 575 594 602 463 "},"5":{"x_min":37.5,"x_max":716.671875,"ha":772,"o":"m 276 805 l 677 805 l 677 969 l 136 969 l 68 427 l 241 419 b 372 490 279 488 345 490 b 516 313 475 490 516 401 b 369 129 516 208 462 129 b 231 263 283 129 240 183 l 37 263 b 358 -26 47 65 204 -26 b 716 327 648 -26 716 193 b 418 645 716 554 550 645 b 241 591 322 645 277 616 l 276 805 "},"Ѕ":{"x_min":52.78125,"x_max":873.609375,"ha":926,"o":"m 455 1022 b 69 712 256 1022 69 937 b 386 422 69 495 226 459 l 493 397 b 673 275 591 375 673 354 b 468 147 673 172 554 147 b 252 306 359 147 252 187 l 52 306 b 456 -25 52 69 243 -25 b 873 291 763 -25 873 131 b 612 566 873 497 715 541 l 369 626 b 261 727 325 636 261 648 b 438 850 261 818 355 850 b 641 698 552 850 641 805 l 841 698 b 455 1022 841 972 587 1022 "},"õ":{"x_min":47,"x_max":802.546875,"ha":849,"o":"m 802 369 b 424 758 802 636 623 758 b 47 369 226 758 47 636 b 424 -19 47 102 226 -19 b 802 369 623 -19 802 102 m 602 369 b 424 144 602 275 574 144 b 247 369 274 144 247 275 b 424 594 247 463 274 594 b 602 369 574 594 602 463 m 588 1023 b 523 968 583 1000 569 968 b 437 991 503 968 484 973 b 337 1018 390 1009 369 1018 b 209 952 274 1018 235 988 b 169 847 184 916 174 875 l 258 847 b 323 906 260 862 274 906 b 422 879 347 906 377 893 b 527 856 447 870 497 856 b 678 1023 642 856 672 981 l 588 1023 "},",":{"x_min":88.890625,"x_max":297.21875,"ha":386,"o":"m 297 202 l 88 202 l 88 0 l 205 0 b 88 -159 198 -116 141 -141 l 88 -233 l 90 -233 b 297 27 208 -205 297 -143 l 297 202 "},"d":{"x_min":47.21875,"x_max":765.28125,"ha":849,"o":"m 765 997 l 570 997 l 570 643 l 568 643 b 354 758 537 690 479 758 b 47 377 191 758 47 633 b 358 -19 47 175 138 -19 b 572 93 438 -19 525 9 l 575 93 l 575 0 l 765 0 l 765 997 m 247 363 b 412 590 247 480 288 590 b 579 352 545 590 579 470 b 406 140 579 243 530 140 b 247 363 281 140 247 276 "},"ѣ":{"x_min":27.78125,"x_max":893.0625,"ha":926,"o":"m 408 337 l 575 337 b 693 240 629 337 693 322 b 575 144 693 159 629 144 l 408 144 l 408 337 m 216 0 l 623 0 b 893 240 677 0 893 13 b 623 481 893 406 786 481 l 408 481 l 408 594 l 656 594 l 656 738 l 408 738 l 408 997 l 216 997 l 216 738 l 27 738 l 27 594 l 216 594 l 216 0 "},"\"":{"x_min":136.109375,"x_max":522.21875,"ha":658,"o":"m 386 620 l 522 620 l 522 997 l 386 997 l 386 620 m 136 620 l 272 620 l 272 997 l 136 997 l 136 620 "},"˙":{"x_min":144.4375,"x_max":319.4375,"ha":463,"o":"m 319 1012 l 144 1012 l 144 852 l 319 852 l 319 1012 "},"ê":{"x_min":32,"x_max":733.390625,"ha":772,"o":"m 525 216 b 400 136 509 164 454 136 b 226 316 243 136 232 261 l 733 316 l 733 351 b 386 758 733 689 532 758 b 32 384 62 758 32 473 b 400 -19 32 80 191 -19 b 725 216 526 -19 673 39 l 525 216 m 232 443 b 383 598 243 540 291 598 b 533 443 445 598 522 562 l 232 443 m 473 1041 l 300 1041 l 141 839 l 298 839 l 386 953 l 475 839 l 632 839 l 473 1041 "},"„":{"x_min":88.890625,"x_max":605.5625,"ha":694,"o":"m 88 0 l 195 0 b 93 -131 193 -52 184 -102 l 93 -202 b 283 34 172 -186 283 -140 l 283 176 l 88 176 l 88 0 m 411 0 l 518 0 b 415 -131 515 -52 506 -102 l 415 -202 b 605 34 494 -186 605 -140 l 605 176 l 411 176 l 411 0 "},"ч":{"x_min":43.0625,"x_max":680.5625,"ha":772,"o":"m 680 738 l 488 738 l 488 433 b 369 419 463 424 423 419 b 234 509 269 419 234 424 l 234 738 l 43 738 l 43 472 b 320 274 43 315 158 274 b 488 291 363 274 455 284 l 488 0 l 680 0 l 680 738 "},"Â":{"x_min":28,"x_max":975,"ha":1003,"o":"m 316 205 l 684 205 l 748 0 l 975 0 l 623 997 l 383 997 l 28 0 l 247 0 l 316 205 m 500 772 l 502 772 l 626 377 l 372 377 l 500 772 m 588 1299 l 415 1299 l 257 1097 l 414 1097 l 501 1211 l 590 1097 l 747 1097 l 588 1299 "},"Í":{"x_min":88.96875,"x_max":457.015625,"ha":386,"o":"m 297 997 l 88 997 l 88 0 l 297 0 l 297 997 m 457 1300 l 243 1300 l 112 1097 l 252 1097 l 457 1300 "},"´":{"x_min":150,"x_max":494,"ha":463,"o":"m 494 1041 l 280 1041 l 150 838 l 290 838 l 494 1041 "},"Ú":{"x_min":100.5,"x_max":904.671875,"ha":1003,"o":"m 904 997 l 692 997 l 692 340 b 490 150 692 219 633 150 b 313 350 393 150 313 211 l 313 997 l 100 997 l 100 336 b 178 94 103 236 124 155 b 494 -26 267 -4 403 -26 b 904 348 746 -26 904 86 l 904 997 m 765 1300 l 551 1300 l 421 1097 l 561 1097 l 765 1300 "},"Ý":{"x_min":20.53125,"x_max":906.640625,"ha":926,"o":"m 573 373 l 906 997 l 670 997 l 473 563 l 266 997 l 20 997 l 364 376 l 364 0 l 573 0 l 573 373 m 726 1300 l 512 1300 l 381 1097 l 521 1097 l 726 1300 "},"И":{"x_min":97.21875,"x_max":905.5625,"ha":1003,"o":"m 97 0 l 308 0 l 702 675 l 705 675 l 705 0 l 905 0 l 905 997 l 694 997 l 300 318 l 297 318 l 297 997 l 97 997 l 97 0 "},"ѵ":{"x_min":19.4375,"x_max":800,"ha":847,"o":"m 272 0 l 520 0 l 669 516 b 744 605 681 561 694 605 b 800 597 769 605 787 601 l 800 747 b 683 761 765 755 734 761 b 505 588 558 761 529 672 l 395 191 l 393 191 l 234 738 l 19 738 l 272 0 "},"Љ":{"x_min":13.890625,"x_max":1341.671875,"ha":1389,"o":"m 13 0 b 144 -25 58 -13 98 -25 b 400 550 379 -25 388 177 l 408 825 l 654 825 l 654 0 l 1013 0 b 1341 301 1072 0 1341 0 b 983 604 1341 604 1072 604 l 862 604 l 862 997 l 212 997 b 187 319 204 788 201 580 b 98 147 184 258 186 147 b 13 173 65 147 30 163 l 13 0 m 862 440 l 952 440 b 1133 305 1038 440 1133 430 b 961 172 1133 186 1036 172 l 862 172 l 862 440 "},"р":{"x_min":86.109375,"x_max":801.390625,"ha":849,"o":"m 86 -287 l 277 -287 l 277 90 l 280 90 b 486 -23 330 1 412 -23 b 801 381 700 -23 801 143 b 493 759 801 669 627 759 b 272 631 384 759 325 720 l 269 631 l 269 737 l 86 737 l 86 -287 m 436 587 b 601 368 558 587 601 472 b 436 140 601 284 576 140 b 270 368 295 140 270 284 b 436 587 270 472 313 587 "},"Ω":{"x_min":52.78125,"x_max":922.21875,"ha":978,"o":"m 240 140 l 52 140 l 52 0 l 415 0 l 415 102 b 245 505 327 156 245 302 b 491 845 245 701 343 845 b 729 512 647 845 729 684 b 559 102 729 290 645 159 l 559 0 l 922 0 l 922 140 l 731 140 l 731 144 b 902 548 818 223 902 366 b 493 990 902 758 759 990 b 72 540 241 990 72 787 b 240 144 72 361 155 225 l 240 140 "},"т":{"x_min":27.78125,"x_max":666.671875,"ha":694,"o":"m 251 0 l 443 0 l 443 583 l 666 583 l 666 738 l 27 738 l 27 583 l 251 583 l 251 0 "},"П":{"x_min":97.21875,"x_max":905.5625,"ha":1003,"o":"m 97 0 l 305 0 l 305 825 l 697 825 l 697 0 l 905 0 l 905 997 l 97 997 l 97 0 "},"Ö":{"x_min":61.109375,"x_max":1019.453125,"ha":1081,"o":"m 61 498 b 540 -26 61 30 408 -26 b 1019 498 672 -26 1019 30 b 540 1023 1019 966 672 1023 b 61 498 408 1023 61 966 m 269 498 b 540 847 269 777 427 847 b 811 498 652 847 811 777 b 540 150 811 219 652 150 b 269 498 427 150 269 219 m 493 1270 l 318 1270 l 318 1111 l 493 1111 l 493 1270 m 763 1270 l 588 1270 l 588 1111 l 763 1111 l 763 1270 "},"z":{"x_min":28.0625,"x_max":666.953125,"ha":694,"o":"m 653 579 l 653 738 l 54 738 l 54 583 l 407 583 l 28 151 l 28 0 l 666 0 l 666 159 l 279 159 l 653 579 "},"":{"x_min":47.140625,"x_max":802.6875,"ha":849,"o":"m 554 1006 b 523 984 548 997 544 988 b 290 968 508 980 327 972 b 88 769 120 950 88 840 b 183 627 88 729 99 655 b 111 563 162 613 137 597 b 47 358 72 512 47 438 b 424 -22 47 193 148 -22 b 802 366 652 -22 802 133 b 591 708 802 495 755 655 b 334 729 530 727 508 727 b 247 773 295 729 247 730 b 373 827 247 822 312 825 b 720 1006 594 837 688 841 l 554 1006 m 248 369 b 426 597 248 481 294 597 b 604 369 565 597 604 486 b 426 141 604 252 565 141 b 248 369 294 141 248 256 "},"™":{"x_min":61.109375,"x_max":1327.78125,"ha":1389,"o":"m 855 997 l 643 997 l 643 425 l 790 425 l 790 815 l 793 815 l 929 425 l 1041 425 l 1177 815 l 1180 815 l 1180 425 l 1327 425 l 1327 997 l 1115 997 l 986 650 l 855 997 m 534 997 l 61 997 l 61 879 l 219 879 l 219 425 l 375 425 l 375 879 l 534 879 l 534 997 "},"ã":{"x_min":39.953125,"x_max":731.453125,"ha":772,"o":"m 688 544 b 393 758 688 726 498 758 b 63 500 242 758 85 726 l 250 500 b 370 603 256 543 273 603 b 498 516 420 603 498 598 b 430 458 498 475 460 462 l 255 432 b 39 196 131 414 39 340 b 264 -18 39 43 153 -18 b 503 88 396 -18 459 42 b 521 0 507 46 510 35 l 731 0 l 731 29 b 688 144 707 38 688 57 l 688 544 m 498 265 b 324 119 498 175 410 119 b 234 208 287 119 234 140 b 366 319 234 289 293 307 b 498 360 446 332 478 344 l 498 265 m 550 1023 b 485 968 545 1000 531 968 b 399 991 466 968 446 973 b 299 1018 352 1009 331 1018 b 171 952 237 1018 198 988 b 131 847 146 916 137 875 l 220 847 b 285 906 223 862 237 906 b 384 879 309 906 339 893 b 489 857 409 870 459 857 b 641 1023 605 857 634 981 l 550 1023 "},"æ":{"x_min":40.5625,"x_max":1193.390625,"ha":1235,"o":"m 985 217 b 860 136 969 164 914 136 b 685 317 701 136 690 262 l 1193 317 l 1193 352 b 846 759 1193 690 992 759 b 628 677 730 756 671 711 b 400 759 591 709 519 759 b 66 499 250 759 83 718 l 257 499 b 373 604 257 533 268 604 b 510 522 510 604 510 549 b 410 449 510 474 500 465 l 228 419 b 40 207 85 394 40 296 b 303 -18 40 13 196 -18 b 582 100 426 -18 535 25 b 850 -18 622 49 675 -18 l 860 -18 b 1185 217 986 -18 1133 39 l 985 217 m 505 262 b 344 120 505 182 419 120 b 235 206 278 120 235 149 b 361 313 235 288 285 302 b 505 355 466 328 487 339 l 505 262 m 692 444 b 843 599 703 541 751 599 b 993 444 905 599 982 563 l 692 444 "},"É":{"x_min":105.5625,"x_max":862.5,"ha":926,"o":"m 838 997 l 105 997 l 105 0 l 862 0 l 862 176 l 309 176 l 309 434 l 795 434 l 795 611 l 309 611 l 309 820 l 838 820 l 838 997 m 726 1300 l 512 1300 l 381 1097 l 522 1097 l 726 1300 "},"и":{"x_min":91.671875,"x_max":756.953125,"ha":849,"o":"m 91 0 l 301 0 l 562 445 l 565 445 l 565 0 l 756 0 l 756 738 l 555 738 l 286 283 l 283 283 l 283 738 l 91 738 l 91 0 "},"~":{"x_min":85,"x_max":726.671875,"ha":811,"o":"m 676 476 b 554 375 644 427 610 375 b 412 426 516 375 464 404 b 258 470 360 450 305 470 b 85 351 165 470 115 409 l 135 226 b 251 327 157 275 190 327 b 411 277 315 327 366 302 b 553 231 457 252 501 231 b 726 351 639 231 685 293 l 676 476 "},"":{"x_min":-126.390625,"x_max":512.5,"ha":386,"o":"m 69 848 l 183 848 l 355 1048 l 181 1048 l 69 848 m 356 848 l 512 848 l 512 1004 l 356 1004 l 356 848 m -126 848 l 29 848 l 29 1004 l -126 1004 l -126 848 "},"³":{"x_min":11.109375,"x_max":452.78125,"ha":463,"o":"m 140 795 b 226 881 140 811 140 881 b 301 811 295 881 301 831 b 200 737 301 737 237 737 l 179 737 l 179 648 b 316 566 238 648 316 645 b 227 480 316 501 279 480 b 134 573 143 480 134 541 l 11 573 b 234 376 11 388 173 376 b 452 566 363 376 452 455 b 356 704 452 668 379 698 l 356 706 b 433 820 393 720 433 758 b 234 986 433 945 320 986 b 22 795 90 986 22 906 l 140 795 "},"¡":{"x_min":125,"x_max":338.890625,"ha":463,"o":"m 130 543 l 333 543 l 333 738 l 130 738 l 130 543 m 125 -4 l 125 -258 l 338 -258 l 338 -4 l 283 462 l 180 462 l 125 -4 "},"[":{"x_min":87.5,"x_max":429.171875,"ha":463,"o":"m 256 869 l 429 869 l 429 1002 l 87 1002 l 87 -272 l 429 -272 l 429 -138 l 256 -138 l 256 869 "},"К":{"x_min":120.828125,"x_max":1002.78125,"ha":1003,"o":"m 120 0 l 329 0 l 329 337 l 430 441 l 738 0 l 1002 0 l 572 588 l 979 997 l 709 997 l 329 591 l 329 997 l 120 997 l 120 0 "},"ѳ":{"x_min":47,"x_max":803,"ha":850,"o":"m 425 -22 b 803 369 662 -22 803 141 b 425 761 803 597 662 761 b 47 369 191 761 47 597 b 425 -22 47 141 191 -22 m 603 309 b 425 141 589 205 530 141 b 247 309 323 141 263 211 l 603 309 m 247 437 b 425 597 262 523 322 597 b 603 437 532 597 590 529 l 247 437 "},"%":{"x_min":38.890625,"x_max":1195.828125,"ha":1235,"o":"m 181 733 b 291 843 181 794 231 843 b 401 733 351 843 401 794 b 291 623 401 672 351 623 b 181 733 231 623 181 672 m 38 733 b 291 480 38 591 152 480 b 544 733 429 480 544 593 b 291 986 544 872 429 986 b 38 733 152 986 38 873 m 941 986 l 838 986 l 286 -26 l 388 -26 l 941 986 m 690 236 b 943 -16 690 94 804 -16 b 1195 236 1080 -16 1195 95 b 943 488 1195 375 1080 488 b 690 236 804 488 690 376 m 833 236 b 943 345 833 297 883 345 b 1052 236 1002 345 1052 297 b 943 126 1052 175 1002 126 b 833 236 883 126 833 175 "},"P":{"x_min":105.5625,"x_max":870.828125,"ha":926,"o":"m 313 359 l 552 359 b 870 677 820 359 870 587 b 561 997 870 873 754 997 l 105 997 l 105 0 l 313 0 l 313 359 m 313 531 l 313 825 l 479 825 b 662 687 608 825 662 784 b 506 531 662 643 662 531 l 313 531 "},"∏":{"x_min":34.71875,"x_max":961.109375,"ha":997,"o":"m 961 819 l 961 975 l 34 975 l 34 819 l 175 819 l 175 -134 l 345 -134 l 345 819 l 650 819 l 650 -134 l 820 -134 l 820 819 l 961 819 "},"_":{"x_min":0,"x_max":772.21875,"ha":772,"o":"m 0 -104 l 0 -173 l 772 -173 l 772 -104 l 0 -104 "},"ñ":{"x_min":89.8125,"x_max":757.875,"ha":849,"o":"m 757 511 b 500 758 757 673 645 758 b 278 630 360 758 305 675 l 275 630 l 275 738 l 89 738 l 89 0 l 284 0 l 284 423 b 437 594 284 536 350 594 b 563 448 560 594 563 502 l 563 0 l 757 0 l 757 511 m 588 1023 b 523 968 582 1000 568 968 b 437 991 503 968 484 973 b 337 1018 389 1009 368 1018 b 209 952 274 1018 235 988 b 168 847 184 916 174 875 l 257 847 b 323 906 260 862 274 906 b 421 879 346 906 377 893 b 527 856 446 870 496 856 b 678 1023 642 856 671 981 l 588 1023 "},"‚":{"x_min":95.828125,"x_max":290.28125,"ha":386,"o":"m 95 0 l 202 0 b 100 -131 200 -52 191 -102 l 100 -202 b 290 34 179 -186 290 -140 l 290 176 l 95 176 l 95 0 "},"Æ":{"x_min":6.9375,"x_max":1325,"ha":1389,"o":"m 800 434 l 1263 434 l 1263 611 l 800 611 l 800 820 l 1315 820 l 1315 997 l 370 997 l 6 0 l 225 0 l 297 212 l 595 212 l 595 0 l 1325 0 l 1325 176 l 800 176 l 800 434 m 351 376 l 505 820 l 595 820 l 595 376 l 351 376 "},"ѓ":{"x_min":92.171875,"x_max":589.390625,"ha":617,"o":"m 92 0 l 283 0 l 283 583 l 589 583 l 589 738 l 92 738 l 92 0 m 193 848 l 332 848 l 538 1048 l 322 1048 l 193 848 "},"ы":{"x_min":91.671875,"x_max":1065.28125,"ha":1157,"o":"m 873 0 l 1065 0 l 1065 738 l 873 738 l 873 0 m 91 0 l 498 0 b 768 240 552 0 768 13 b 477 481 768 406 661 481 l 283 481 l 283 738 l 91 738 l 91 0 m 283 337 l 427 337 b 568 240 504 337 568 318 b 444 144 568 159 504 144 l 283 144 l 283 337 "},"ª":{"x_min":31.046875,"x_max":482.4375,"ha":514,"o":"m 453 894 b 263 1023 453 1004 331 1023 b 49 868 164 1023 63 1004 l 169 868 b 247 925 174 893 185 925 b 331 878 281 925 331 923 b 286 846 331 853 306 848 l 172 830 b 31 686 92 819 31 772 b 179 557 31 594 107 557 b 335 621 265 557 306 593 b 346 568 338 596 339 589 l 482 568 l 482 586 b 453 654 467 590 453 603 l 453 894 m 331 729 b 218 641 331 675 274 641 b 161 693 193 641 161 654 b 244 761 161 740 197 754 b 331 784 297 768 318 776 l 331 729 "},"ї":{"x_min":-33.328125,"x_max":419.4375,"ha":386,"o":"m 97 0 l 288 0 l 288 738 l 97 738 l 97 0 m -33 848 l 147 848 l 147 1012 l -33 1012 l -33 848 m 238 848 l 419 848 l 419 1012 l 238 1012 l 238 848 "},"Œ":{"x_min":51.390625,"x_max":1334.71875,"ha":1389,"o":"m 872 821 l 1334 821 l 1334 997 l 681 997 l 681 939 b 466 1024 648 972 594 1024 b 51 498 155 1024 51 744 b 461 -26 51 82 295 -26 b 681 69 577 -26 625 5 l 681 0 l 1334 0 l 1334 176 l 872 176 l 872 435 l 1302 435 l 1302 611 l 872 611 l 872 821 m 668 272 b 487 146 668 215 604 146 b 255 487 318 146 255 339 b 495 851 255 689 323 851 b 668 724 559 851 668 824 l 668 272 "},"T":{"x_min":19.4375,"x_max":830.5625,"ha":849,"o":"m 529 820 l 830 820 l 830 997 l 19 997 l 19 820 l 320 820 l 320 0 l 529 0 l 529 820 "},"Њ":{"x_min":97.21875,"x_max":1327.78125,"ha":1374,"o":"m 850 440 l 938 440 b 1119 305 1025 440 1119 430 b 947 172 1119 186 1022 172 l 850 172 l 850 440 m 97 0 l 305 0 l 305 440 l 641 440 l 641 0 l 1000 0 b 1327 301 1058 0 1327 0 b 969 604 1327 604 1058 604 l 850 604 l 850 997 l 641 997 l 641 604 l 305 604 l 305 997 l 97 997 l 97 0 "},"š":{"x_min":41.5,"x_max":720.203125,"ha":772,"o":"m 697 514 b 366 758 682 722 510 758 b 67 511 135 758 67 619 b 525 204 67 235 525 328 b 402 128 525 176 502 128 b 241 236 280 128 241 174 l 41 236 b 396 -18 47 39 228 -18 b 720 235 512 -18 720 19 b 258 539 720 507 258 422 b 377 611 258 571 271 611 b 507 514 482 611 499 561 l 697 514 m 631 1041 l 474 1041 l 385 927 l 298 1041 l 141 1041 l 299 839 l 473 839 l 631 1041 "},"є":{"x_min":47.21875,"x_max":725,"ha":772,"o":"m 430 429 l 247 429 b 394 597 254 518 304 597 b 525 477 477 597 509 555 l 725 477 b 394 761 706 700 530 761 b 47 369 184 761 47 620 b 394 -22 47 118 169 -22 b 725 270 654 -22 725 195 l 525 270 b 394 141 525 222 483 141 b 247 301 304 141 255 212 l 430 301 l 430 429 "},"Þ":{"x_min":105.5625,"x_max":870.828125,"ha":926,"o":"m 105 0 l 313 0 l 313 220 l 552 220 b 870 538 820 220 870 448 b 561 861 870 734 754 861 l 313 861 l 313 997 l 105 997 l 105 0 m 313 393 l 313 688 l 479 688 b 662 548 608 688 662 645 b 506 393 662 504 662 393 l 313 393 "},"j":{"x_min":4.171875,"x_max":290.28125,"ha":386,"o":"m 290 738 l 95 738 l 95 -73 b 38 -141 95 -141 58 -141 l 4 -141 l 4 -297 l 52 -297 b 290 -77 201 -297 290 -270 l 290 738 m 290 1006 l 95 1006 l 95 826 l 290 826 l 290 1006 "},"1":{"x_min":95.828125,"x_max":525,"ha":772,"o":"m 95 679 l 330 679 l 330 0 l 525 0 l 525 986 l 365 986 b 123 815 361 912 311 815 l 95 815 l 95 679 "},"›":{"x_min":115.03125,"x_max":346.984375,"ha":463,"o":"m 253 388 l 115 266 l 115 105 l 346 305 l 346 472 l 115 672 l 115 511 l 253 388 "},"ћ":{"x_min":27.78125,"x_max":751.390625,"ha":849,"o":"m 158 0 l 350 0 l 350 294 b 463 420 350 359 383 420 b 559 316 559 420 559 338 l 559 0 l 751 0 l 751 363 b 531 565 751 470 690 565 b 350 494 420 565 370 515 l 350 676 l 672 676 l 672 831 l 350 831 l 350 997 l 158 997 l 158 831 l 27 831 l 27 676 l 158 676 l 158 0 "},"ℓ":{"x_min":31.9375,"x_max":683.328125,"ha":708,"o":"m 612 243 b 437 116 575 180 512 116 b 312 273 368 116 313 168 l 312 331 b 584 818 479 495 584 652 b 391 1063 584 954 525 1063 b 145 711 259 1063 145 959 l 145 356 b 31 261 111 323 73 295 l 76 169 b 147 225 100 187 125 208 b 148 209 148 220 148 215 b 397 -20 161 86 230 -20 b 683 172 506 -20 611 30 l 612 243 m 312 713 b 400 940 312 890 358 940 b 476 823 456 940 476 895 b 312 491 476 722 408 601 l 312 713 "},"<":{"x_min":53.125,"x_max":758.6875,"ha":811,"o":"m 758 138 l 254 351 l 758 563 l 758 713 l 53 413 l 53 288 l 758 -11 l 758 138 "},"Ц":{"x_min":97.21875,"x_max":988.890625,"ha":1003,"o":"m 97 0 l 808 0 l 808 -213 l 988 -213 l 988 172 l 905 172 l 905 997 l 697 997 l 697 172 l 305 172 l 305 997 l 97 997 l 97 0 "},"t":{"x_min":13.890625,"x_max":429.171875,"ha":463,"o":"m 308 938 l 113 938 l 113 738 l 13 738 l 13 600 l 113 600 l 113 151 b 312 -8 113 55 144 -8 l 337 -8 b 429 -5 368 -8 398 -6 l 429 141 b 388 138 415 140 401 138 b 308 198 309 138 308 155 l 308 600 l 429 600 l 429 738 l 308 738 l 308 938 "},"¬":{"x_min":55.5625,"x_max":755.5625,"ha":811,"o":"m 600 150 l 755 150 l 755 581 l 55 581 l 55 426 l 600 426 l 600 150 "},"ù":{"x_min":91.671875,"x_max":756.953125,"ha":849,"o":"m 756 738 l 562 738 l 562 312 b 412 144 562 180 476 144 b 286 280 352 144 286 166 l 286 738 l 91 738 l 91 252 b 343 -19 91 63 197 -19 b 568 104 445 -19 523 25 l 570 104 l 570 0 l 756 0 l 756 738 m 365 838 l 505 838 l 375 1041 l 161 1041 l 365 838 "},"Ф":{"x_min":41.671875,"x_max":1116.671875,"ha":1158,"o":"m 479 0 l 679 0 l 679 108 b 1116 498 945 120 1116 280 b 679 888 1116 651 1027 877 l 679 997 l 479 997 l 479 888 b 41 498 130 877 41 651 b 479 108 41 280 212 120 l 479 0 m 479 252 b 241 505 370 252 241 323 b 479 744 240 609 288 738 l 479 252 m 679 744 b 916 506 868 738 916 609 b 679 254 916 325 787 254 l 679 744 "},"ï":{"x_min":-29.171875,"x_max":416.671875,"ha":386,"o":"m 95 738 l 95 0 l 290 0 l 290 738 l 95 738 m 145 1012 l -29 1012 l -29 852 l 145 852 l 145 1012 m 416 1012 l 241 1012 l 241 852 l 416 852 l 416 1012 "},"Ò":{"x_min":61.109375,"x_max":1019.453125,"ha":1081,"o":"m 61 498 b 540 -26 61 30 408 -26 b 1019 498 672 -26 1019 30 b 540 1023 1019 966 672 1023 b 61 498 408 1023 61 966 m 269 498 b 540 847 269 777 427 847 b 811 498 652 847 811 777 b 540 150 811 219 652 150 b 269 498 427 150 269 219 m 481 1097 l 622 1097 l 491 1300 l 277 1300 l 481 1097 "},"О":{"x_min":61.109375,"x_max":1019.453125,"ha":1081,"o":"m 61 498 b 540 -25 61 201 219 -25 b 1019 498 836 -25 1019 201 b 540 1022 1019 795 836 1022 b 61 498 219 1022 61 795 m 540 155 b 269 498 370 155 269 300 b 540 841 269 697 370 841 b 811 498 709 841 811 697 b 540 155 811 300 709 155 "},"&":{"x_min":74.890625,"x_max":973.671875,"ha":1003,"o":"m 539 768 b 447 644 539 717 500 678 b 374 769 399 696 374 736 b 455 850 374 822 412 850 b 539 768 502 850 539 824 m 793 218 b 907 518 859 306 894 383 l 734 518 b 683 354 727 442 708 393 l 541 529 b 707 767 582 553 707 626 b 462 997 707 926 572 997 b 197 768 306 997 197 904 b 287 560 197 682 245 607 l 266 547 b 74 257 101 447 74 353 b 386 -25 74 108 195 -25 b 670 85 536 -25 612 26 l 739 0 l 973 0 l 793 218 m 570 207 b 416 137 537 176 480 137 b 269 269 299 137 269 231 b 387 436 269 349 305 376 l 570 207 "},"˝":{"x_min":13,"x_max":676,"ha":463,"o":"m 357 1041 l 143 1041 l 13 838 l 153 838 l 357 1041 m 676 1041 l 461 1041 l 331 838 l 471 838 l 676 1041 "},"I":{"x_min":88.890625,"x_max":297.21875,"ha":386,"o":"m 297 997 l 88 997 l 88 0 l 297 0 l 297 997 "},"G":{"x_min":61.28125,"x_max":990.453125,"ha":1081,"o":"m 573 369 l 805 369 b 564 150 762 168 609 150 b 273 493 422 150 273 220 b 559 851 273 748 411 851 b 777 687 707 851 777 726 l 986 687 b 548 1023 975 825 854 1023 l 546 1023 b 61 495 211 1023 61 766 b 519 -26 61 145 279 -26 b 830 125 701 -26 777 63 l 851 0 l 990 0 l 990 537 l 573 537 l 573 369 "},"`":{"x_min":-32.4375,"x_max":312,"ha":463,"o":"m 171 838 l 312 838 l 181 1041 l -32 1041 l 171 838 "},"·":{"x_min":80.5625,"x_max":305.5625,"ha":386,"o":"m 80 351 b 193 238 80 290 127 238 b 305 351 258 238 305 290 b 193 463 305 413 255 463 b 80 351 130 463 80 413 "},"¿":{"x_min":76.390625,"x_max":765.28125,"ha":849,"o":"m 329 450 b 244 280 329 350 304 323 b 76 25 137 204 76 137 b 431 -270 76 -247 348 -270 b 765 54 583 -270 765 -187 l 569 54 l 569 52 b 419 -106 562 -12 544 -106 b 284 30 361 -106 284 -77 b 370 168 284 87 316 130 b 512 450 498 258 512 316 l 329 450 m 315 543 l 518 543 l 518 738 l 315 738 l 315 543 "},"ý":{"x_min":14,"x_max":749,"ha":772,"o":"m 749 738 l 543 738 l 391 194 l 389 194 l 230 738 l 14 738 l 286 -30 b 158 -141 268 -131 229 -141 b 120 -138 141 -141 129 -140 l 120 -294 b 208 -297 148 -295 182 -297 b 494 12 378 -297 403 -261 l 749 738 m 650 1041 l 436 1041 l 305 838 l 446 838 l 650 1041 "},"Ђ":{"x_min":11.109375,"x_max":1008.328125,"ha":1057,"o":"m 795 996 l 11 996 l 11 826 l 268 826 l 268 0 l 476 0 l 476 426 b 613 444 551 444 601 444 b 800 208 800 444 800 263 b 722 -39 800 120 781 26 b 541 -119 659 -105 581 -115 l 541 -287 b 798 -216 600 -285 698 -279 b 1008 219 956 -116 1008 41 b 655 614 1008 439 898 614 b 476 592 597 614 566 609 l 476 826 l 795 826 l 795 996 "},"º":{"x_min":8.328125,"x_max":500,"ha":507,"o":"m 500 790 b 254 1023 500 897 430 1023 b 8 790 77 1023 8 897 b 254 556 8 683 77 556 b 500 790 430 556 500 683 m 363 790 b 254 656 363 718 325 656 b 144 790 183 656 144 718 b 254 923 144 862 183 923 b 363 790 325 923 363 862 "},"∞":{"x_min":62.5,"x_max":1069.453125,"ha":1132,"o":"m 566 447 b 295 612 506 518 427 612 b 62 363 176 612 62 529 b 300 113 62 211 163 113 b 566 268 419 113 491 190 b 834 112 648 177 726 112 b 1069 365 976 112 1069 218 b 836 613 1069 540 944 613 b 566 447 713 613 633 527 m 645 359 b 833 480 741 463 793 480 b 944 361 887 480 944 444 b 836 245 944 269 876 245 b 645 359 777 245 720 277 m 486 359 b 298 247 454 323 377 247 b 187 361 236 247 187 287 b 294 479 187 437 241 479 b 415 425 323 479 359 470 b 486 359 451 397 472 373 "},"я":{"x_min":59.0625,"x_max":759.0625,"ha":849,"o":"m 759 738 l 361 738 b 181 706 328 738 239 738 b 74 516 129 679 74 622 b 100 413 74 493 77 448 b 203 337 132 361 177 345 b 99 200 118 312 107 279 l 89 111 b 59 0 85 72 82 40 l 261 0 b 278 91 275 34 277 70 l 281 162 b 441 272 285 262 331 272 l 566 272 l 566 0 l 759 0 l 759 738 m 566 408 l 406 408 b 275 500 345 408 275 408 b 411 594 275 594 346 594 l 566 594 l 566 408 "},"Ё":{"x_min":113.890625,"x_max":869.453125,"ha":926,"o":"m 113 0 l 869 0 l 869 180 l 313 180 l 313 431 l 802 431 l 802 604 l 313 604 l 313 825 l 845 825 l 845 997 l 113 997 l 113 0 m 237 1083 l 418 1083 l 418 1247 l 237 1247 l 237 1083 m 509 1083 l 690 1083 l 690 1247 l 509 1247 l 509 1083 "},";":{"x_min":127.78125,"x_max":336.109375,"ha":463,"o":"m 336 202 l 127 202 l 127 0 l 244 0 b 127 -159 237 -116 180 -141 l 127 -233 l 129 -233 b 336 27 247 -205 336 -143 l 336 202 m 336 711 l 127 711 l 127 508 l 336 508 l 336 711 "},"Г":{"x_min":113.890625,"x_max":784.71875,"ha":803,"o":"m 113 0 l 322 0 l 322 825 l 784 825 l 784 997 l 113 997 l 113 0 "},"6":{"x_min":42.875,"x_max":722.03125,"ha":772,"o":"m 702 737 b 610 923 684 841 665 870 b 409 987 562 972 449 987 b 42 469 67 987 42 657 b 399 -26 42 223 101 -26 b 722 333 590 -26 722 118 b 420 638 722 481 624 638 b 235 555 310 638 262 592 l 233 558 b 395 831 240 686 269 831 b 509 737 467 831 503 793 l 702 737 m 527 316 b 391 129 527 183 462 129 b 237 312 298 129 237 205 b 385 482 237 436 312 482 b 527 316 447 482 527 441 "},"Ь":{"x_min":113.890625,"x_max":879.171875,"ha":926,"o":"m 322 440 l 490 440 b 670 305 576 440 670 430 b 498 172 670 186 573 172 l 322 172 l 322 440 m 113 0 l 551 0 b 879 301 609 0 879 0 b 520 604 879 604 609 604 l 322 604 l 322 997 l 113 997 l 113 0 "},"n":{"x_min":90.28125,"x_max":758.328125,"ha":849,"o":"m 758 511 b 501 758 758 673 645 758 b 279 630 361 758 305 675 l 276 630 l 276 738 l 90 738 l 90 0 l 284 0 l 284 423 b 437 594 284 536 351 594 b 563 448 561 594 563 502 l 563 0 l 758 0 l 758 511 "},"¤":{"x_min":-3.9375,"x_max":777.140625,"ha":772,"o":"m 386 339 b 244 495 300 339 244 408 b 386 650 244 583 300 650 b 531 495 472 650 531 583 b 386 339 531 408 472 339 m -3 197 l 87 105 l 223 241 b 386 195 267 215 325 195 b 549 241 450 195 508 215 l 685 105 l 777 197 l 641 333 b 686 495 667 373 686 432 b 641 655 686 556 667 615 l 777 791 l 685 883 l 549 747 b 386 793 508 773 450 793 b 223 747 325 793 267 773 l 87 883 l -3 791 l 132 655 b 89 495 108 618 89 556 b 132 333 89 432 105 376 l -3 197 "},"∂":{"x_min":33.328125,"x_max":691.671875,"ha":772,"o":"m 154 778 b 322 845 186 803 240 845 b 523 524 494 845 526 634 b 333 601 483 585 384 601 b 33 295 148 601 33 464 b 337 -22 33 155 118 -22 b 691 470 659 -22 691 319 b 313 974 691 714 601 974 b 70 882 200 974 130 927 l 154 778 m 344 102 b 193 287 273 102 193 155 b 355 476 193 366 234 476 b 522 387 444 476 497 416 b 344 102 526 257 469 102 "},"p":{"x_min":86.109375,"x_max":802.78125,"ha":849,"o":"m 272 352 b 437 590 272 470 304 590 b 602 363 561 590 602 480 b 443 140 602 276 568 140 b 272 352 319 140 272 243 m 272 738 l 86 738 l 86 -287 l 280 -287 l 280 94 l 283 94 b 491 -19 306 54 355 -19 b 802 377 711 -19 802 175 b 495 758 802 633 658 758 b 275 631 365 758 311 690 l 272 631 l 272 738 "},"":{"x_min":78,"x_max":422,"ha":386,"o":"m 78 1083 l 216 1083 l 422 1283 l 207 1283 l 78 1083 "},"‡":{"x_min":50,"x_max":722.21875,"ha":772,"o":"m 722 706 l 477 706 l 477 997 l 291 997 l 291 706 l 50 706 l 50 551 l 291 551 l 291 219 l 50 219 l 50 63 l 291 63 l 291 -237 l 477 -237 l 477 63 l 722 63 l 722 219 l 477 219 l 477 551 l 722 551 l 722 706 "},"√":{"x_min":0.546875,"x_max":770,"ha":772,"o":"m 58 91 l 129 123 l 340 -287 l 481 -287 l 770 988 l 614 988 l 386 -58 l 207 298 l 0 209 l 58 91 "},"Ю":{"x_min":97.21875,"x_max":1327.78125,"ha":1389,"o":"m 97 0 l 297 0 l 297 416 l 426 416 b 872 -25 451 177 583 -25 b 1327 506 1145 -25 1327 180 b 872 1022 1327 922 1055 1022 b 426 580 600 1022 447 806 l 297 580 l 297 997 l 97 997 l 97 0 m 626 500 b 872 841 626 734 725 841 b 1119 500 1020 841 1119 734 b 872 155 1119 262 1020 155 b 626 500 725 155 626 262 "},"S":{"x_min":54.171875,"x_max":873.609375,"ha":926,"o":"m 54 306 b 480 -26 54 183 116 -26 b 873 300 568 -26 873 0 b 612 568 873 479 748 534 l 369 627 b 263 731 327 637 263 654 b 437 851 263 822 358 851 b 641 701 619 851 636 745 l 841 701 b 452 1023 840 823 758 1023 b 69 716 129 1023 69 827 b 386 423 69 497 225 461 l 493 398 b 673 275 598 373 673 352 b 465 145 673 169 563 145 b 254 306 283 145 255 251 l 54 306 "},"/":{"x_min":-46,"x_max":432,"ha":386,"o":"m 432 1023 l 269 1023 l -46 -26 l 116 -26 l 432 1023 "},"":{"x_min":-126.390625,"x_max":512.5,"ha":386,"o":"m 204 1048 l 30 1048 l 202 848 l 316 848 l 204 1048 m 29 1004 l -126 1004 l -126 848 l 29 848 l 29 1004 m 512 1004 l 356 1004 l 356 848 l 512 848 l 512 1004 "},"ђ":{"x_min":27.78125,"x_max":763.890625,"ha":849,"o":"m 158 0 l 350 0 l 350 291 b 451 406 350 353 376 406 b 563 172 563 406 563 278 b 443 -123 563 -76 540 -109 l 443 -287 b 540 -274 470 -287 500 -286 b 715 -123 631 -251 690 -190 b 763 184 758 -9 763 114 b 711 466 763 350 741 414 b 527 565 684 512 625 565 b 350 494 427 565 376 517 l 350 676 l 672 676 l 672 831 l 350 831 l 350 997 l 158 997 l 158 831 l 27 831 l 27 676 l 158 676 l 158 0 "},"y":{"x_min":14,"x_max":749,"ha":772,"o":"m 749 738 l 543 738 l 391 194 l 389 194 l 230 738 l 14 738 l 286 -30 b 158 -141 268 -131 229 -141 b 120 -138 141 -141 129 -140 l 120 -294 b 208 -297 148 -295 182 -297 b 494 12 378 -297 403 -261 l 749 738 "},"≈":{"x_min":96,"x_max":737.671875,"ha":833,"o":"m 687 327 b 565 229 655 279 621 229 b 269 322 484 229 376 322 b 96 202 176 322 126 261 l 146 66 b 277 166 168 116 207 166 b 564 73 387 166 452 73 b 737 193 650 73 696 134 l 687 327 m 687 633 b 565 534 655 584 621 534 b 269 627 484 534 376 627 b 96 508 176 627 126 566 l 146 372 b 277 472 168 422 207 472 b 564 379 387 472 452 379 b 737 498 650 379 696 440 l 687 633 "},"":{"x_min":-50.890625,"x_max":438,"ha":386,"o":"m 106 1083 l 279 1083 l 438 1283 l 282 1283 l 193 1169 l 104 1283 l -50 1283 l 106 1083 "},"g":{"x_min":55.5625,"x_max":768.0625,"ha":849,"o":"m 581 739 l 581 629 l 579 629 b 362 758 555 678 500 758 b 55 378 200 758 55 633 b 373 -3 55 119 195 -3 b 570 107 490 -3 538 50 l 573 104 l 573 15 b 419 -153 573 -103 523 -153 b 283 -78 306 -153 291 -116 l 72 -78 b 394 -301 80 -235 241 -301 b 768 39 758 -301 768 -88 l 768 739 l 581 739 m 255 365 b 408 590 255 537 336 590 b 575 373 516 590 575 493 b 409 159 575 272 541 159 b 255 365 294 159 255 271 "},"²":{"x_min":12.5,"x_max":450,"ha":463,"o":"m 141 775 b 234 876 143 808 145 876 b 318 809 290 876 318 837 b 316 802 318 808 316 805 b 155 627 316 736 270 705 b 12 393 29 541 16 462 l 450 393 l 450 506 l 191 506 b 326 605 205 523 244 555 b 448 798 381 638 448 695 b 229 986 448 918 351 986 b 19 775 172 986 19 968 l 141 775 "},"–":{"x_min":0,"x_max":772.21875,"ha":772,"o":"m 772 462 l 0 462 l 0 315 l 772 315 l 772 462 "},"ë":{"x_min":32,"x_max":733.390625,"ha":772,"o":"m 525 216 b 400 136 509 163 454 136 b 226 316 243 136 232 261 l 733 316 l 733 351 b 386 758 733 688 532 758 b 32 384 62 758 32 473 b 400 -19 32 80 191 -19 b 725 216 526 -19 673 38 l 525 216 m 232 443 b 383 598 243 540 291 598 b 533 443 445 598 522 562 l 232 443 m 338 1012 l 163 1012 l 163 852 l 338 852 l 338 1012 m 609 1012 l 434 1012 l 434 852 l 609 852 l 609 1012 "},"б":{"x_min":46.640625,"x_max":802.1875,"ha":849,"o":"m 542 1008 b 481 985 536 995 532 985 b 284 963 423 985 339 980 b 46 474 88 902 46 651 b 86 198 46 449 46 305 b 425 -23 146 41 256 -23 b 802 366 659 -23 802 131 b 459 726 802 578 675 726 b 232 627 388 726 314 713 b 468 845 254 823 341 835 b 716 1008 592 855 686 862 l 542 1008 m 248 369 b 425 596 248 481 293 596 b 603 369 564 596 603 485 b 425 141 603 252 564 141 b 248 369 293 141 248 256 "},"ƒ":{"x_min":-14,"x_max":717,"ha":772,"o":"m 660 662 l 493 662 l 514 784 b 607 868 522 829 550 868 b 683 847 628 868 660 859 l 717 997 b 573 1023 660 1016 609 1023 b 326 783 375 1023 340 845 l 300 662 l 109 662 l 109 527 l 279 527 l 200 63 b 94 -131 175 -83 159 -131 b 19 -108 68 -131 55 -129 l -14 -262 b 126 -291 51 -283 80 -291 b 391 29 327 -291 373 -83 l 473 527 l 660 527 l 660 662 "},"у":{"x_min":19,"x_max":752,"ha":772,"o":"m 752 738 l 546 738 l 395 194 l 392 194 l 234 738 l 19 738 l 289 -38 b 181 -138 289 -69 263 -138 b 124 -134 166 -138 139 -136 l 124 -290 b 199 -294 155 -293 174 -294 b 497 12 389 -294 410 -241 l 752 738 "},"J":{"x_min":30.5625,"x_max":672.21875,"ha":772,"o":"m 672 997 l 463 997 l 463 288 b 347 143 463 212 455 143 b 225 376 236 143 225 219 l 30 376 b 362 -25 30 186 30 -25 b 672 288 562 -25 672 77 l 672 997 "},"Ã":{"x_min":28,"x_max":975,"ha":1003,"o":"m 316 205 l 684 205 l 748 0 l 975 0 l 623 997 l 383 997 l 28 0 l 247 0 l 316 205 m 500 772 l 502 772 l 626 377 l 372 377 l 500 772 m 666 1281 b 601 1226 661 1258 647 1226 b 515 1250 582 1226 562 1231 b 415 1276 468 1268 447 1276 b 287 1211 352 1276 314 1247 b 247 1105 262 1175 252 1133 l 336 1105 b 401 1165 339 1120 352 1165 b 500 1137 425 1165 455 1151 b 605 1115 525 1129 575 1115 b 757 1281 720 1115 750 1240 l 666 1281 "},"Ј":{"x_min":31.9375,"x_max":675,"ha":772,"o":"m 466 301 b 351 147 466 230 466 147 b 231 376 231 147 231 240 l 31 376 b 351 -25 31 191 44 -25 b 675 275 475 -25 675 25 l 675 997 l 466 997 l 466 301 "},"©":{"x_min":-15.28125,"x_max":1040.28125,"ha":1024,"o":"m 1040 500 b 512 1023 1040 831 790 1023 b -15 500 234 1023 -15 831 b 512 -26 -15 168 234 -26 b 1040 500 790 -26 1040 168 m 888 500 b 512 94 888 256 716 94 l 512 95 l 509 95 b 136 500 302 95 136 258 b 512 902 136 741 304 902 b 888 500 716 902 888 741 m 656 420 b 533 323 651 355 601 323 b 387 506 447 323 387 404 b 530 683 387 613 440 683 b 656 591 590 683 644 655 l 776 591 b 530 804 754 731 655 804 b 244 504 352 804 244 676 b 533 202 244 334 358 202 b 781 420 654 202 759 280 l 656 420 "},"˘":{"x_min":-2.78125,"x_max":465.28125,"ha":463,"o":"m 375 1041 b 226 944 359 951 290 944 b 88 1041 109 944 95 1005 l -2 1041 b 218 838 1 986 31 838 b 465 1041 425 838 459 979 l 375 1041 "},"≥":{"x_min":65.28125,"x_max":768.0625,"ha":833,"o":"m 65 -79 l 768 -79 l 768 76 l 65 76 l 65 -79 m 65 154 l 768 406 l 768 523 l 65 781 l 65 637 l 551 466 l 551 463 l 65 298 l 65 154 "},"ґ":{"x_min":91.671875,"x_max":586.109375,"ha":617,"o":"m 91 0 l 283 0 l 283 583 l 586 583 l 586 908 l 441 908 l 441 738 l 91 738 l 91 0 "},"D":{"x_min":105.5625,"x_max":951.390625,"ha":1003,"o":"m 105 0 l 537 0 b 951 522 866 0 951 308 b 545 997 951 711 881 997 l 105 997 l 105 0 m 309 825 l 509 825 b 738 506 598 825 738 801 b 512 172 738 343 681 172 l 309 172 l 309 825 "},"ÿ":{"x_min":14,"x_max":748.71875,"ha":772,"o":"m 748 738 l 543 738 l 391 194 l 389 194 l 230 738 l 14 738 l 286 -30 b 158 -141 268 -131 229 -141 b 120 -138 141 -141 129 -140 l 120 -294 b 208 -297 148 -295 182 -297 b 494 12 377 -297 402 -261 l 748 738 m 339 1012 l 164 1012 l 164 852 l 339 852 l 339 1012 m 609 1012 l 434 1012 l 434 852 l 609 852 l 609 1012 "},"ł":{"x_min":-25,"x_max":411.109375,"ha":386,"o":"m 411 726 l 290 657 l 290 997 l 95 997 l 95 558 l -25 489 l -25 381 l 95 450 l 95 0 l 290 0 l 290 549 l 411 618 l 411 726 "},"ц":{"x_min":91.671875,"x_max":833.328125,"ha":849,"o":"m 91 0 l 655 0 l 655 -177 l 833 -177 l 833 155 l 756 155 l 756 738 l 565 738 l 565 155 l 283 155 l 283 738 l 91 738 l 91 0 "},"Ł":{"x_min":-27.78125,"x_max":809.71875,"ha":849,"o":"m 491 637 l 491 746 l 313 644 l 313 997 l 105 997 l 105 540 l -27 464 l -27 355 l 105 432 l 105 0 l 809 0 l 809 180 l 313 180 l 313 536 l 491 637 "},"Л":{"x_min":52.78125,"x_max":947.21875,"ha":1028,"o":"m 738 0 l 947 0 l 947 997 l 251 997 b 223 268 248 861 233 423 b 134 147 220 227 209 147 b 52 173 122 147 91 151 l 52 0 b 186 -25 98 -13 137 -25 b 380 81 243 -25 333 -8 b 438 550 425 168 429 281 l 447 825 l 738 825 l 738 0 "},"":{"x_min":-45.828125,"x_max":431.9375,"ha":386,"o":"m 431 1186 l -45 1186 l -45 1083 l 431 1083 l 431 1186 "},"$":{"x_min":41.671875,"x_max":726.390625,"ha":772,"o":"m 711 696 b 418 986 693 943 522 975 l 418 1076 l 354 1076 l 354 986 b 62 697 156 983 62 848 b 354 415 62 505 218 451 l 354 123 b 223 298 247 142 231 201 l 41 298 b 354 -24 41 91 129 -6 l 354 -160 l 418 -160 l 418 -24 b 726 274 647 -11 726 146 b 650 469 726 309 725 398 b 418 579 615 503 548 537 l 418 839 b 531 696 472 839 523 823 l 711 696 m 354 598 b 237 730 300 611 237 640 b 354 839 237 776 272 835 l 354 598 m 418 392 b 540 259 473 376 540 340 b 418 123 540 152 463 125 l 418 392 "},"w":{"x_min":14,"x_max":1068,"ha":1081,"o":"m 1068 738 l 868 738 l 752 208 l 750 208 l 638 738 l 443 738 l 338 208 l 336 208 l 220 738 l 14 738 l 222 0 l 422 0 l 537 538 l 540 538 l 655 0 l 855 0 l 1068 738 "},"∫":{"x_min":27.78125,"x_max":515.28125,"ha":547,"o":"m 515 1188 b 431 1205 500 1197 466 1205 b 270 1141 372 1205 309 1186 b 188 827 211 1079 188 990 b 208 137 188 590 208 390 b 170 -81 208 11 194 -47 b 109 -109 155 -101 131 -109 b 50 -94 83 -109 62 -100 l 27 -218 b 133 -240 47 -229 90 -240 b 309 -141 201 -240 272 -212 b 361 138 340 -86 361 4 b 340 811 361 388 340 584 b 379 1047 340 929 348 1008 b 448 1083 395 1072 422 1083 b 497 1070 468 1083 484 1077 l 515 1188 "},"\\":{"x_min":-45.78125,"x_max":432,"ha":386,"o":"m 269 -26 l 432 -26 l 116 1023 l -45 1023 l 269 -26 "},"о":{"x_min":47.21875,"x_max":802.78125,"ha":850,"o":"m 47 369 b 425 -22 47 141 191 -22 b 802 369 662 -22 802 141 b 425 761 802 597 662 761 b 47 369 191 761 47 597 m 247 369 b 425 597 247 481 293 597 b 602 369 563 597 602 486 b 425 141 602 252 563 141 b 247 369 293 141 247 256 "},"Д":{"x_min":16.96875,"x_max":986.40625,"ha":1003,"o":"m 16 -213 l 197 -213 l 197 0 l 805 0 l 805 -213 l 986 -213 l 986 172 l 910 172 l 910 997 l 230 997 b 104 172 223 515 168 340 l 16 172 l 16 -213 m 701 172 l 312 172 b 414 825 407 419 412 715 l 701 825 l 701 172 "},"Ì":{"x_min":-69.625,"x_max":297.03125,"ha":386,"o":"m 297 997 l 88 997 l 88 0 l 297 0 l 297 997 m 134 1097 l 274 1097 l 144 1300 l -69 1300 l 134 1097 "},"Ç":{"x_min":61.109375,"x_max":950,"ha":1003,"o":"m 741 342 b 520 154 716 220 636 154 b 273 495 344 154 273 316 b 520 843 273 777 420 843 b 741 671 693 843 725 731 l 950 671 b 519 1024 938 818 818 1024 b 61 498 262 1024 61 846 b 461 -22 61 177 226 0 l 400 -115 l 429 -143 b 484 -132 447 -138 469 -132 b 538 -182 512 -132 538 -150 b 473 -236 538 -217 502 -236 b 366 -214 444 -236 402 -225 l 336 -281 b 495 -315 412 -308 443 -315 b 668 -178 597 -315 668 -258 b 547 -70 668 -90 586 -70 b 505 -75 530 -70 522 -71 l 541 -24 b 950 342 776 -14 909 132 l 741 342 "},"ъ":{"x_min":27.78125,"x_max":893.0625,"ha":926,"o":"m 27 583 l 233 583 l 233 0 l 623 0 b 893 240 677 0 893 13 b 602 481 893 406 786 481 l 425 481 l 425 738 l 27 738 l 27 583 m 425 337 l 552 337 b 693 240 629 337 693 318 b 569 144 693 159 629 144 l 425 144 l 425 337 "},"C":{"x_min":61.109375,"x_max":950,"ha":1003,"o":"m 950 670 b 519 1023 938 818 818 1023 b 61 497 262 1023 61 845 b 516 -26 61 152 251 -26 b 950 341 766 -26 908 125 l 741 341 b 520 154 716 219 636 154 b 273 494 344 154 273 315 b 520 843 273 776 420 843 b 741 670 693 843 725 730 l 950 670 "},"!":{"x_min":125,"x_max":338.890625,"ha":463,"o":"m 333 195 l 130 195 l 130 0 l 333 0 l 333 195 m 338 743 l 338 997 l 125 997 l 125 743 l 180 276 l 283 276 l 338 743 "},"ç":{"x_min":47,"x_max":728,"ha":772,"o":"m 223 -281 b 383 -315 299 -308 330 -315 b 555 -178 484 -315 555 -258 b 434 -70 555 -90 473 -70 b 392 -75 418 -70 409 -71 l 434 -15 b 726 270 666 6 719 198 l 529 270 b 397 141 529 235 495 141 b 247 381 249 141 247 300 b 401 595 247 473 278 595 l 411 595 b 530 475 494 595 522 523 l 728 475 b 401 759 709 706 518 759 b 47 349 151 759 47 588 b 352 -17 47 200 105 0 l 287 -115 l 316 -143 b 372 -132 334 -138 356 -132 b 426 -182 399 -132 426 -150 b 361 -236 426 -217 390 -236 b 253 -214 331 -236 290 -225 l 223 -281 "},"È":{"x_min":105.5625,"x_max":862.5,"ha":926,"o":"m 838 997 l 105 997 l 105 0 l 862 0 l 862 176 l 309 176 l 309 434 l 795 434 l 795 611 l 309 611 l 309 820 l 838 820 l 838 997 m 404 1097 l 544 1097 l 413 1300 l 200 1300 l 404 1097 "},"Й":{"x_min":97.21875,"x_max":905.5625,"ha":1003,"o":"m 97 0 l 308 0 l 702 675 l 705 675 l 705 0 l 905 0 l 905 997 l 694 997 l 300 318 l 297 318 l 297 997 l 97 997 l 97 0 m 650 1283 b 501 1191 637 1219 576 1191 b 352 1283 426 1191 365 1219 l 275 1283 b 501 1083 275 1140 366 1083 b 727 1283 636 1083 727 1140 l 650 1283 "},"ﬁ":{"x_min":13.890625,"x_max":752.78125,"ha":849,"o":"m 315 600 l 441 600 l 441 738 l 315 738 l 315 768 b 383 850 315 829 316 850 l 437 850 l 437 1006 b 337 1009 420 1008 394 1009 b 120 798 204 1009 120 951 l 120 738 l 13 738 l 13 600 l 120 600 l 120 0 l 315 0 l 315 600 m 558 738 l 558 0 l 752 0 l 752 738 l 558 738 m 752 1006 l 558 1006 l 558 826 l 752 826 l 752 1006 "},"X":{"x_min":19,"x_max":906.984375,"ha":926,"o":"m 581 518 l 886 997 l 645 997 l 463 675 l 285 997 l 37 997 l 341 509 l 19 0 l 262 0 l 463 340 l 652 0 l 906 0 l 581 518 "},"ô":{"x_min":47,"x_max":802.546875,"ha":849,"o":"m 802 369 b 424 758 802 636 623 758 b 47 369 226 758 47 636 b 424 -19 47 103 226 -19 b 802 369 623 -19 802 103 m 602 369 b 424 144 602 275 574 144 b 247 369 274 144 247 275 b 424 594 247 464 274 594 b 602 369 574 594 602 464 m 510 1041 l 337 1041 l 178 839 l 335 839 l 423 953 l 512 839 l 669 839 l 510 1041 "},"Б":{"x_min":113.890625,"x_max":941.671875,"ha":1003,"o":"m 113 0 l 613 0 b 941 301 672 0 941 0 b 583 604 941 604 672 604 l 322 604 l 322 825 l 805 825 l 805 997 l 113 997 l 113 0 m 322 440 l 552 440 b 733 305 638 440 733 430 b 561 172 733 186 636 172 l 322 172 l 322 440 "},"г":{"x_min":91.671875,"x_max":588.890625,"ha":617,"o":"m 91 0 l 283 0 l 283 583 l 588 583 l 588 738 l 91 738 l 91 0 "},"х":{"x_min":21,"x_max":752,"ha":772,"o":"m 272 376 l 21 0 l 255 0 l 389 222 l 511 0 l 752 0 l 500 376 l 742 738 l 512 738 l 389 523 l 268 738 l 32 738 l 272 376 "},"}":{"x_min":33.328125,"x_max":473.609375,"ha":540,"o":"m 473 429 b 343 534 434 429 343 448 l 343 812 b 148 1002 343 943 236 1002 l 33 1002 l 33 880 l 95 880 b 173 788 166 880 173 830 l 173 516 b 331 366 187 398 287 370 l 331 363 b 173 213 287 359 187 331 l 173 -58 b 95 -150 173 -100 166 -150 l 33 -150 l 33 -272 l 148 -272 b 343 -81 236 -272 343 -212 l 343 195 b 473 301 343 281 434 301 l 473 429 "},"â":{"x_min":39.953125,"x_max":731.4375,"ha":772,"o":"m 688 544 b 393 758 688 726 498 758 b 63 500 242 758 85 726 l 250 500 b 370 603 256 543 273 603 b 498 517 420 603 498 598 b 430 458 498 475 460 462 l 255 432 b 39 196 131 414 39 340 b 264 -18 39 43 153 -18 b 503 88 396 -18 459 42 b 521 0 507 46 510 35 l 731 0 l 731 29 b 688 144 707 38 688 57 l 688 544 m 498 265 b 324 119 498 175 410 119 b 234 208 286 119 234 140 b 366 319 234 289 293 307 b 498 360 446 332 478 344 l 498 265 m 473 1041 l 299 1041 l 141 839 l 298 839 l 385 953 l 474 839 l 631 839 l 473 1041 "},"ø":{"x_min":30.328125,"x_max":817.828125,"ha":849,"o":"m 583 487 b 602 369 598 451 602 408 b 424 144 602 275 574 144 b 302 191 367 144 328 162 l 583 487 m 267 248 b 247 369 251 289 247 332 b 424 594 247 463 274 594 b 549 545 481 594 520 576 l 267 248 m 817 732 l 769 777 l 673 676 b 424 757 603 731 516 757 b 47 369 226 757 47 635 b 131 107 47 257 78 171 l 30 0 l 83 -39 l 178 61 b 424 -18 245 7 333 -18 b 802 369 623 -18 802 103 b 719 630 802 481 770 567 l 817 732 "},"‰":{"x_min":-3.90625,"x_max":1392.84375,"ha":1389,"o":"m 134 762 b 219 847 134 811 173 847 b 304 762 265 847 304 811 b 219 677 304 713 265 677 b 134 762 173 677 134 713 m -3 762 b 219 538 -3 638 96 538 b 443 762 343 538 443 640 b 219 986 443 884 341 986 b -3 762 96 986 -3 884 m 111 -26 l 214 -26 l 766 986 l 663 986 l 111 -26 m 438 206 b 662 -16 438 83 538 -16 b 885 206 785 -16 885 84 b 662 430 885 329 784 430 b 438 206 538 430 438 329 m 577 206 b 662 291 577 255 616 291 b 747 206 708 291 747 255 b 662 122 747 158 708 122 b 577 206 616 122 577 158 m 945 206 b 1169 -16 945 83 1045 -16 b 1392 206 1292 -16 1392 84 b 1169 430 1392 329 1291 430 b 945 206 1045 430 945 329 m 1084 206 b 1169 291 1084 255 1123 291 b 1253 206 1215 291 1253 255 b 1169 122 1253 158 1215 122 b 1084 206 1123 122 1084 158 "},"Ä":{"x_min":27.78125,"x_max":975,"ha":1003,"o":"m 316 205 l 684 205 l 748 0 l 975 0 l 623 997 l 383 997 l 27 0 l 247 0 l 316 205 m 500 772 l 502 772 l 626 377 l 372 377 l 500 772 m 454 1270 l 279 1270 l 279 1111 l 454 1111 l 454 1270 m 725 1270 l 550 1270 l 550 1111 l 725 1111 l 725 1270 "},"Ч":{"x_min":61.109375,"x_max":837.5,"ha":926,"o":"m 629 0 l 837 0 l 837 997 l 629 997 l 629 548 b 437 522 577 531 490 522 b 261 680 308 522 261 551 l 261 997 l 61 997 l 61 630 b 366 366 61 525 70 366 b 629 398 391 366 490 369 l 629 0 "},"—":{"x_min":0,"x_max":1388.890625,"ha":1389,"o":"m 1388 462 l 0 462 l 0 315 l 1388 315 l 1388 462 "},"N":{"x_min":95.828125,"x_max":908.328125,"ha":1003,"o":"m 713 302 l 711 302 l 315 997 l 95 997 l 95 0 l 290 0 l 290 711 l 293 711 l 700 0 l 908 0 l 908 997 l 713 997 l 713 302 "},"⁄":{"x_min":-236,"x_max":467,"ha":232,"o":"m 467 986 l 358 986 l -236 -26 l -126 -26 l 467 986 "},"2":{"x_min":36.109375,"x_max":709.71875,"ha":772,"o":"m 236 637 b 377 822 237 709 241 822 b 513 681 472 822 513 747 b 265 391 513 570 443 520 b 36 0 51 236 43 115 l 709 0 l 709 172 l 281 172 b 502 354 304 218 372 262 b 708 675 598 419 708 505 b 369 986 708 875 558 986 b 47 637 281 986 47 958 l 236 637 "},"":{"x_min":-33.328125,"x_max":419.4375,"ha":386,"o":"m -33 1083 l 147 1083 l 147 1247 l -33 1247 l -33 1083 m 238 1083 l 419 1083 l 419 1247 l 238 1247 l 238 1083 "},"ü":{"x_min":91.671875,"x_max":756.953125,"ha":849,"o":"m 756 738 l 562 738 l 562 312 b 412 144 562 180 476 144 b 286 280 352 144 286 166 l 286 738 l 91 738 l 91 252 b 343 -19 91 63 197 -19 b 568 104 445 -19 523 25 l 570 104 l 570 0 l 756 0 l 756 738 m 376 1012 l 201 1012 l 201 852 l 376 852 l 376 1012 m 647 1012 l 472 1012 l 472 852 l 647 852 l 647 1012 "},"М":{"x_min":97.21875,"x_max":1059.71875,"ha":1157,"o":"m 97 0 l 288 0 l 288 833 l 291 833 l 473 0 l 676 0 l 865 833 l 868 833 l 868 0 l 1059 0 l 1059 997 l 754 997 l 579 220 l 576 220 l 401 997 l 97 997 l 97 0 "},"ь":{"x_min":90.28125,"x_max":768.0625,"ha":803,"o":"m 90 0 l 498 0 b 768 240 552 0 768 13 b 477 481 768 406 661 481 l 281 481 l 281 738 l 90 738 l 90 0 m 281 337 l 427 337 b 568 240 504 337 568 318 b 444 144 568 159 504 144 l 281 144 l 281 337 "},"Ó":{"x_min":61.109375,"x_max":1019.453125,"ha":1081,"o":"m 61 498 b 540 -26 61 30 408 -26 b 1019 498 672 -26 1019 30 b 540 1023 1019 966 672 1023 b 61 498 408 1023 61 966 m 269 498 b 540 847 269 777 427 847 b 811 498 652 847 811 777 b 540 150 811 219 652 150 b 269 498 427 150 269 219 m 804 1300 l 590 1300 l 459 1097 l 600 1097 l 804 1300 "},"˜":{"x_min":-24,"x_max":485.71875,"ha":463,"o":"m 395 1023 b 330 968 389 1000 376 968 b 244 991 310 968 291 973 b 144 1018 196 1009 176 1018 b 16 952 81 1018 42 988 b -24 847 -8 916 -18 875 l 64 847 b 130 906 67 862 81 906 b 228 879 153 906 184 893 b 334 856 253 870 303 856 b 485 1023 449 856 478 981 l 395 1023 "},"ˇ":{"x_min":-14,"x_max":476,"ha":463,"o":"m 476 1041 l 319 1041 l 230 927 l 142 1041 l -14 1041 l 144 839 l 317 839 l 476 1041 "},"Ÿ":{"x_min":20.828125,"x_max":906.953125,"ha":926,"o":"m 573 373 l 906 997 l 670 997 l 473 563 l 266 997 l 20 997 l 365 376 l 365 0 l 573 0 l 573 373 m 415 1270 l 240 1270 l 240 1111 l 415 1111 l 415 1270 m 686 1270 l 511 1270 l 511 1111 l 686 1111 l 686 1270 "},"Ў":{"x_min":33,"x_max":916,"ha":926,"o":"m 160 0 b 281 -25 187 -8 228 -25 b 598 261 441 -25 514 66 l 916 997 l 691 997 l 492 461 l 266 997 l 33 997 l 327 377 b 364 256 346 337 364 300 b 264 175 364 212 331 175 b 160 202 224 175 187 191 l 160 0 m 611 1283 b 463 1191 599 1219 538 1191 b 314 1283 388 1191 327 1219 l 237 1283 b 463 1083 237 1140 328 1083 b 689 1283 598 1083 689 1140 l 611 1283 "},"€":{"x_min":16.671875,"x_max":781.953125,"ha":772,"o":"m 781 862 b 504 986 745 915 643 986 b 140 641 300 986 173 861 l 70 641 l 16 509 l 127 509 l 127 480 b 129 443 127 468 129 455 l 72 443 l 16 311 l 141 311 b 504 -26 181 80 316 -26 b 718 25 579 -26 654 -16 l 718 202 b 504 129 668 159 591 129 b 341 311 393 129 352 230 l 552 311 l 608 443 l 327 443 l 327 509 l 634 509 l 690 641 l 338 641 b 504 830 359 766 413 830 b 675 759 590 830 644 791 b 718 706 704 730 712 718 l 781 862 "},"в":{"x_min":97.109375,"x_max":786,"ha":849,"o":"m 288 602 l 462 602 b 567 527 542 602 567 570 b 456 448 567 476 544 448 l 288 448 l 288 602 m 97 0 l 531 0 b 786 230 687 0 786 91 b 672 395 786 309 745 369 b 759 544 717 418 759 455 b 499 738 759 698 636 738 l 97 738 l 97 0 m 288 320 l 456 320 b 586 227 549 320 586 301 b 456 136 586 188 567 136 l 288 136 l 288 320 "},"С":{"x_min":61.109375,"x_max":950,"ha":1003,"o":"m 950 669 b 513 1022 940 800 838 1022 b 61 498 286 1022 61 866 b 522 -25 61 180 226 -25 b 950 341 733 -25 905 93 l 743 341 b 513 155 725 279 688 155 b 269 498 362 155 269 283 b 513 841 269 795 437 841 b 741 669 693 841 725 727 l 950 669 "},"Ω":{"x_min":52.78125,"x_max":922.21875,"ha":978,"o":"m 240 140 l 52 140 l 52 0 l 415 0 l 415 102 b 245 505 327 156 245 302 b 491 845 245 701 343 845 b 729 512 647 845 729 684 b 559 102 729 290 645 159 l 559 0 l 922 0 l 922 140 l 731 140 l 731 144 b 902 548 818 223 902 366 b 493 990 902 758 759 990 b 72 540 241 990 72 787 b 240 144 72 361 155 225 l 240 140 "},"ß":{"x_min":96.03125,"x_max":804.359375,"ha":849,"o":"m 387 -11 b 464 -19 421 -16 440 -19 b 804 318 719 -19 804 159 b 646 570 804 391 793 505 b 747 743 700 597 747 659 b 419 1015 747 995 514 1015 b 96 748 196 1015 96 887 l 96 0 l 290 0 l 290 736 b 412 859 290 831 361 859 b 552 737 439 859 552 859 b 397 616 552 622 472 619 l 397 481 b 609 312 484 476 609 468 b 427 140 609 195 546 140 b 387 141 414 140 401 140 l 387 -11 "},"њ":{"x_min":91.671875,"x_max":1191.671875,"ha":1225,"o":"m 91 0 l 283 0 l 283 337 l 565 337 l 565 0 l 922 0 b 1191 240 976 0 1191 13 b 901 481 1191 406 1084 481 l 756 481 l 756 738 l 565 738 l 565 481 l 283 481 l 283 738 l 91 738 l 91 0 m 756 337 l 851 337 b 991 240 927 337 991 318 b 868 144 991 159 927 144 l 756 144 l 756 337 "},"":{"x_min":-153,"x_max":480.171875,"ha":386,"o":"m 351 1048 l 135 1048 l 341 848 l 480 848 l 351 1048 m 62 1048 l -153 1048 l 52 848 l 191 848 l 62 1048 "},"s":{"x_min":41.671875,"x_max":720.828125,"ha":772,"o":"m 698 514 b 366 758 683 722 511 758 b 68 511 136 758 68 619 b 526 204 68 235 526 328 b 402 128 526 176 502 128 b 241 236 280 128 241 174 l 41 236 b 397 -18 47 39 229 -18 b 720 235 512 -18 720 19 b 258 539 720 507 258 422 b 377 611 258 571 272 611 b 508 514 483 611 500 561 l 698 514 "},"?":{"x_min":83.328125,"x_max":772.21875,"ha":849,"o":"m 519 288 b 604 458 519 388 544 415 b 772 713 711 534 772 601 b 416 1009 772 986 500 1009 b 83 684 265 1009 83 926 l 279 684 l 279 686 b 429 845 286 751 304 845 b 563 708 487 845 563 816 b 477 570 563 651 531 608 b 336 288 350 480 336 422 l 519 288 m 533 195 l 330 195 l 330 0 l 533 0 l 533 195 "},"c":{"x_min":47.21875,"x_max":727.78125,"ha":772,"o":"m 529 269 b 397 140 529 234 495 140 b 247 380 250 140 247 300 b 401 594 247 472 279 594 l 411 594 b 530 475 494 594 522 522 l 727 475 b 401 758 709 705 518 758 b 47 348 151 758 47 587 b 388 -19 47 193 111 -19 b 726 269 659 -19 719 193 l 529 269 "},"¶":{"x_min":-11.109375,"x_max":748.609375,"ha":772,"o":"m 297 -265 l 452 -265 l 452 854 l 593 854 l 593 -265 l 748 -265 l 748 972 l 327 972 b -11 722 134 972 -11 919 b 297 481 -11 573 100 481 l 297 -265 "},"•":{"x_min":13.890625,"x_max":472.21875,"ha":486,"o":"m 13 500 b 243 269 13 369 115 269 b 472 500 369 269 472 370 b 243 727 472 627 369 727 b 13 500 115 727 13 627 "},"н":{"x_min":91.671875,"x_max":756.953125,"ha":849,"o":"m 91 0 l 283 0 l 283 316 l 565 316 l 565 0 l 756 0 l 756 738 l 565 738 l 565 472 l 283 472 l 283 738 l 91 738 l 91 0 "},"":{"x_min":-33.328125,"x_max":419.4375,"ha":386,"o":"m 341 1048 b 193 956 329 984 268 956 b 44 1048 118 956 56 984 l -33 1048 b 193 848 -33 905 58 848 b 419 1048 327 848 419 905 l 341 1048 "},"(":{"x_min":48.609375,"x_max":436.109375,"ha":463,"o":"m 436 -288 b 248 362 334 -112 248 75 b 436 1019 248 650 329 837 l 293 1019 b 48 362 163 847 48 633 b 293 -288 48 91 169 -122 l 436 -288 "},"◊":{"x_min":69,"x_max":750,"ha":819,"o":"m 750 487 l 481 1043 l 344 1043 l 69 487 l 337 -68 l 474 -68 l 750 487 m 597 483 l 435 147 b 410 70 428 131 416 90 l 405 70 b 381 150 401 88 391 122 l 220 490 l 381 818 b 408 902 391 845 401 876 l 412 902 b 438 818 417 877 428 844 l 597 483 "},"м":{"x_min":91.671875,"x_max":911.109375,"ha":1003,"o":"m 91 0 l 272 0 l 272 594 l 275 594 l 413 0 l 588 0 l 727 594 l 730 594 l 730 0 l 911 0 l 911 738 l 630 738 l 508 202 l 505 202 l 380 738 l 91 738 l 91 0 "},"­":{"x_min":37.5,"x_max":425,"ha":463,"o":"m 425 479 l 37 479 l 37 298 l 425 298 l 425 479 "},"з":{"x_min":30.5625,"x_max":663.890625,"ha":694,"o":"m 229 534 b 343 625 240 597 275 625 b 447 536 402 625 447 602 b 329 448 447 479 397 448 l 288 448 l 288 315 b 343 320 306 318 323 320 b 463 225 408 320 463 295 b 343 113 463 181 437 113 b 213 231 266 113 234 162 l 30 231 b 358 -22 59 52 181 -22 b 663 213 504 -22 663 48 b 541 398 663 302 629 359 l 541 401 b 638 552 597 438 638 466 b 358 761 638 658 544 761 b 112 675 231 761 156 722 b 48 534 68 626 54 570 l 229 534 "},":":{"x_min":127.78125,"x_max":336.109375,"ha":463,"o":"m 336 202 l 127 202 l 127 0 l 336 0 l 336 202 m 336 711 l 127 711 l 127 508 l 336 508 l 336 711 "},"Ґ":{"x_min":113.890625,"x_max":826.390625,"ha":849,"o":"m 113 0 l 322 0 l 322 825 l 826 825 l 826 1172 l 662 1172 l 662 997 l 113 997 l 113 0 "},"і":{"x_min":97.21875,"x_max":288.890625,"ha":386,"o":"m 97 0 l 288 0 l 288 738 l 97 738 l 97 0 m 97 848 l 288 848 l 288 1029 l 97 1029 l 97 848 "},"Û":{"x_min":100.375,"x_max":904.53125,"ha":1003,"o":"m 904 997 l 692 997 l 692 340 b 490 149 692 219 633 149 b 312 349 393 149 312 211 l 312 997 l 100 997 l 100 336 b 178 94 103 236 123 155 b 494 -26 267 -4 403 -26 b 904 348 746 -26 904 86 l 904 997 m 589 1299 l 415 1299 l 257 1097 l 414 1097 l 501 1211 l 590 1097 l 747 1097 l 589 1299 "},"":{"x_min":-94,"x_max":539,"ha":386,"o":"m -94 1083 l 44 1083 l 250 1283 l 35 1283 l -94 1083 m 194 1083 l 333 1083 l 539 1283 l 323 1283 l 194 1083 "},"V":{"x_min":26,"x_max":900,"ha":926,"o":"m 466 241 l 463 241 l 249 997 l 26 997 l 362 0 l 560 0 l 900 997 l 683 997 l 466 241 "}," ":{"x_min":0,"x_max":0,"ha":386},"У":{"x_min":33,"x_max":916,"ha":926,"o":"m 160 0 b 281 -25 187 -8 228 -25 b 598 261 441 -25 514 66 l 916 997 l 691 997 l 492 461 l 266 997 l 33 997 l 327 377 b 364 256 346 337 364 300 b 264 175 364 212 331 175 b 160 202 224 175 187 191 l 160 0 "},"@":{"x_min":163.734375,"x_max":1188.734375,"ha":1354,"o":"m 806 522 b 641 328 806 430 740 328 b 533 452 573 328 533 380 b 695 640 533 538 599 640 b 806 522 760 640 806 590 m 848 684 b 680 774 808 749 749 774 b 383 431 501 774 383 605 b 606 190 383 301 485 190 b 752 265 660 190 716 224 l 755 263 b 834 190 758 213 794 190 b 1188 594 930 190 1188 295 b 699 1023 1188 853 951 1023 b 163 498 406 1023 163 795 b 708 -26 163 195 408 -26 b 1131 197 881 -26 1034 53 l 1008 197 b 716 84 934 128 831 84 b 301 495 476 84 301 248 b 697 912 301 731 458 912 b 1076 560 910 912 1076 787 b 919 316 1076 409 992 316 b 898 345 904 316 898 328 b 908 403 898 363 904 387 l 988 758 l 866 758 l 848 684 "},"¾":{"x_min":22.21875,"x_max":1109.71875,"ha":1158,"o":"m 844 986 l 250 -26 l 359 -26 l 952 986 l 844 986 m 151 795 b 237 881 151 811 151 881 b 312 811 306 881 312 831 b 211 737 312 737 248 737 l 190 737 l 190 648 b 327 566 250 648 327 645 b 238 480 327 501 290 480 b 145 573 154 480 145 541 l 22 573 b 245 376 22 388 184 376 b 463 566 375 376 463 455 b 368 704 463 668 390 698 l 368 706 b 444 820 404 720 444 758 b 245 986 444 945 331 986 b 33 795 101 986 33 906 l 151 795 m 890 588 l 654 227 l 654 125 l 908 125 l 908 0 l 1040 0 l 1040 125 l 1109 125 l 1109 220 l 1040 220 l 1040 588 l 890 588 m 752 220 l 908 466 l 911 466 b 908 220 911 454 908 361 l 752 220 "},"i":{"x_min":95.828125,"x_max":290.28125,"ha":386,"o":"m 95 738 l 95 0 l 290 0 l 290 738 l 95 738 m 290 1006 l 95 1006 l 95 826 l 290 826 l 290 1006 "},"ќ":{"x_min":97.21875,"x_max":833.328125,"ha":849,"o":"m 97 0 l 288 0 l 288 213 l 370 293 l 583 0 l 833 0 l 515 431 l 820 738 l 565 738 l 288 458 l 288 738 l 97 738 l 97 0 m 309 848 l 448 848 l 654 1048 l 438 1048 l 309 848 "},"≤":{"x_min":65.28125,"x_max":768.0625,"ha":833,"o":"m 768 76 l 65 76 l 65 -79 l 768 -79 l 768 76 m 768 298 l 281 463 l 281 466 l 768 637 l 768 781 l 65 523 l 65 406 l 768 154 l 768 298 "},"ё":{"x_min":36.109375,"x_max":736.109375,"ha":772,"o":"m 736 309 b 386 761 736 581 648 761 b 36 377 138 761 36 579 b 391 -22 36 88 194 -22 b 726 219 622 -22 726 137 l 527 219 b 402 133 512 165 456 133 b 229 309 245 133 229 269 l 736 309 m 236 437 b 386 605 236 568 322 605 b 536 437 450 605 536 568 l 236 437 m 159 848 l 340 848 l 340 1012 l 159 1012 l 159 848 m 431 848 l 612 848 l 612 1012 l 431 1012 l 431 848 "},"m":{"x_min":88.890625,"x_max":1147.21875,"ha":1235,"o":"m 1147 510 b 890 757 1147 673 1034 757 b 693 639 772 757 718 675 b 487 757 643 719 594 757 b 277 630 356 757 302 678 l 275 630 l 275 738 l 88 738 l 88 0 l 283 0 l 283 449 b 404 594 283 530 312 594 b 520 444 520 594 520 506 l 520 0 l 715 0 l 715 442 b 847 594 715 530 750 594 b 952 448 904 594 952 557 l 952 0 l 1147 0 l 1147 510 "},"Е":{"x_min":113.890625,"x_max":869.453125,"ha":926,"o":"m 113 0 l 869 0 l 869 180 l 313 180 l 313 431 l 802 431 l 802 604 l 313 604 l 313 825 l 845 825 l 845 997 l 113 997 l 113 0 "},"Э":{"x_min":61.109375,"x_max":941.671875,"ha":1003,"o":"m 425 416 l 725 416 b 476 155 725 259 631 158 b 270 322 352 155 297 241 l 62 322 b 487 -25 100 129 244 -25 b 941 505 656 -25 941 66 b 484 1022 941 779 788 1022 b 61 687 245 1022 91 895 l 269 687 b 468 841 287 748 337 841 b 722 580 655 841 722 675 l 425 580 l 425 416 "},"ž":{"x_min":28.015625,"x_max":666.984375,"ha":694,"o":"m 653 579 l 653 739 l 54 739 l 54 583 l 407 583 l 28 151 l 28 0 l 666 0 l 666 159 l 279 159 l 653 579 m 593 1041 l 436 1041 l 347 927 l 259 1041 l 103 1041 l 261 839 l 435 839 l 593 1041 "},"ю":{"x_min":91.671875,"x_max":1116.671875,"ha":1157,"o":"m 916 369 b 761 141 916 240 873 141 b 602 369 648 141 602 240 b 761 597 602 498 648 597 b 916 369 873 597 916 498 m 91 0 l 283 0 l 283 304 l 411 304 b 761 -22 436 61 581 -22 b 1116 370 1025 -22 1116 184 b 761 761 1116 588 1006 761 b 411 448 577 761 444 666 l 283 448 l 283 738 l 91 738 l 91 0 "},"á":{"x_min":39.953125,"x_max":732.109375,"ha":772,"o":"m 689 544 b 394 758 689 726 498 758 b 63 500 242 758 85 726 l 251 500 b 370 603 256 543 273 603 b 498 517 420 603 498 599 b 430 458 498 475 461 463 l 255 432 b 39 196 131 414 39 340 b 265 -18 39 43 153 -18 b 504 88 397 -18 459 42 b 522 0 508 46 511 35 l 732 0 l 732 29 b 689 144 708 38 689 57 l 689 544 m 498 265 b 324 119 498 175 411 119 b 234 208 287 119 234 140 b 366 319 234 289 294 307 b 498 360 447 332 479 344 l 498 265 m 650 1042 l 436 1042 l 305 839 l 445 839 l 650 1042 "},"×":{"x_min":56,"x_max":757,"ha":811,"o":"m 296 351 l 56 110 l 167 1 l 405 241 l 645 1 l 757 110 l 515 351 l 755 591 l 645 701 l 405 460 l 165 701 l 56 591 l 296 351 "},"п":{"x_min":91.671875,"x_max":756.953125,"ha":849,"o":"m 91 0 l 283 0 l 283 583 l 565 583 l 565 0 l 756 0 l 756 738 l 91 738 l 91 0 "},"K":{"x_min":120.828125,"x_max":1002.78125,"ha":1003,"o":"m 329 337 l 426 437 l 734 0 l 1002 0 l 572 588 l 979 997 l 709 997 l 329 591 l 329 997 l 120 997 l 120 0 l 329 0 l 329 337 "},"7":{"x_min":34.71875,"x_max":733.328125,"ha":772,"o":"m 733 969 l 38 969 l 34 797 l 525 797 b 173 0 441 708 194 394 l 373 0 b 733 819 397 425 638 716 l 733 969 "},"¨":{"x_min":8.328125,"x_max":454.171875,"ha":463,"o":"m 183 1012 l 8 1012 l 8 852 l 183 852 l 183 1012 m 454 1012 l 279 1012 l 279 852 l 454 852 l 454 1012 "},"Y":{"x_min":20.828125,"x_max":906.953125,"ha":926,"o":"m 573 373 l 906 997 l 670 997 l 473 563 l 266 997 l 20 997 l 365 376 l 365 0 l 573 0 l 573 373 "},"E":{"x_min":105.5625,"x_max":862.5,"ha":926,"o":"m 838 997 l 105 997 l 105 0 l 862 0 l 862 176 l 309 176 l 309 434 l 795 434 l 795 611 l 309 611 l 309 820 l 838 820 l 838 997 "},"Ô":{"x_min":61.109375,"x_max":1019.453125,"ha":1081,"o":"m 61 498 b 540 -26 61 30 408 -26 b 1019 498 672 -26 1019 30 b 540 1023 1019 966 672 1023 b 61 498 408 1023 61 966 m 269 498 b 540 847 269 777 427 847 b 811 498 652 847 811 777 b 540 149 811 219 652 149 b 269 498 427 149 269 219 m 627 1299 l 454 1299 l 295 1097 l 452 1097 l 540 1211 l 629 1097 l 786 1097 l 627 1299 "},"‹":{"x_min":115.28125,"x_max":347.21875,"ha":463,"o":"m 347 672 l 115 472 l 115 305 l 347 105 l 347 266 l 208 388 l 347 511 l 347 672 "},"Ï":{"x_min":-29.171875,"x_max":416.671875,"ha":386,"o":"m 297 997 l 88 997 l 88 0 l 297 0 l 297 997 m 145 1270 l -29 1270 l -29 1111 l 145 1111 l 145 1270 m 416 1270 l 241 1270 l 241 1111 l 416 1111 l 416 1270 "},"Є":{"x_min":61.109375,"x_max":941.671875,"ha":1003,"o":"m 577 580 l 280 580 b 534 841 280 675 347 841 b 733 687 665 841 715 748 l 941 687 b 518 1022 911 895 756 1022 b 61 505 213 1022 61 779 b 515 -25 61 66 345 -25 b 940 322 758 -25 902 129 l 731 322 b 526 155 705 241 650 155 b 277 416 370 158 277 259 l 577 416 l 577 580 "},"±":{"x_min":55.5625,"x_max":755.5625,"ha":811,"o":"m 327 529 l 55 529 l 55 373 l 327 373 l 327 198 l 483 198 l 483 373 l 755 373 l 755 529 l 483 529 l 483 702 l 327 702 l 327 529 m 55 0 l 755 0 l 755 155 l 55 155 l 55 0 "},"ì":{"x_min":-69.6875,"x_max":290.03125,"ha":386,"o":"m 95 738 l 95 0 l 290 0 l 290 738 l 95 738 m 134 838 l 274 838 l 144 1041 l -69 1041 l 134 838 "},"|":{"x_min":116.671875,"x_max":272.21875,"ha":389,"o":"m 116 1076 l 116 -312 l 272 -312 l 272 1076 l 116 1076 "},"§":{"x_min":45.890625,"x_max":724.875,"ha":772,"o":"m 332 711 b 279 784 293 730 279 754 b 379 862 279 820 314 862 b 488 755 449 862 484 820 l 665 755 b 384 1009 656 954 514 1009 b 102 761 203 1009 102 888 b 175 600 102 681 143 629 b 45 416 102 559 45 502 b 197 193 45 295 98 243 l 410 84 b 492 -9 462 58 492 37 b 392 -108 492 -37 477 -108 b 269 4 299 -108 275 -48 l 86 4 b 378 -255 87 -63 130 -255 b 679 8 531 -255 679 -168 b 592 186 679 101 624 159 b 724 372 691 230 724 338 b 557 598 724 497 649 552 l 332 711 m 473 429 b 552 340 513 408 552 381 b 492 248 552 297 530 269 l 273 365 b 209 451 236 384 209 408 b 269 531 209 469 226 516 l 473 429 "},"џ":{"x_min":90.28125,"x_max":756.953125,"ha":849,"o":"m 90 0 l 327 0 l 327 -177 l 519 -177 l 519 0 l 756 0 l 756 738 l 565 738 l 565 155 l 281 155 l 281 738 l 90 738 l 90 0 "},"љ":{"x_min":47.21875,"x_max":1236.109375,"ha":1269,"o":"m 597 0 l 966 0 b 1236 240 1020 0 1236 13 b 945 481 1236 406 1129 481 l 788 481 l 788 738 l 193 738 l 181 290 b 102 141 179 169 151 141 b 47 152 83 141 65 145 l 47 -8 b 140 -22 84 -22 127 -22 b 375 312 359 -22 370 156 l 383 583 l 597 583 l 597 0 m 788 337 l 895 337 b 1036 240 972 337 1036 318 b 912 144 1036 159 972 144 l 788 144 l 788 337 "},"й":{"x_min":91.671875,"x_max":756.953125,"ha":849,"o":"m 572 1048 b 423 956 559 984 498 956 b 275 1048 348 956 287 984 l 197 1048 b 423 848 197 905 288 848 b 650 1048 558 848 650 905 l 572 1048 m 91 0 l 301 0 l 562 445 l 565 445 l 565 0 l 756 0 l 756 738 l 555 738 l 286 283 l 283 283 l 283 738 l 91 738 l 91 0 "},"q":{"x_min":47.21875,"x_max":766.671875,"ha":849,"o":"m 580 738 l 580 629 l 577 629 b 370 758 550 677 497 758 b 47 354 141 758 47 559 b 359 -19 47 197 127 -19 b 569 91 456 -19 529 16 l 572 91 l 572 -287 l 766 -287 l 766 738 l 580 738 m 247 355 b 409 590 247 543 334 590 b 576 365 450 590 576 569 b 413 144 576 213 505 144 b 247 355 298 144 247 223 "},"b":{"x_min":84.71875,"x_max":802.78125,"ha":849,"o":"m 602 363 b 443 140 602 276 568 140 b 270 352 319 140 270 243 b 437 590 270 470 304 590 b 602 363 561 590 602 480 m 279 997 l 84 997 l 84 0 l 275 0 l 275 93 l 277 93 b 491 -19 325 9 411 -19 b 802 377 711 -19 802 175 b 495 758 802 633 658 758 b 281 643 370 758 312 690 l 279 643 l 279 997 "},"ﬂ":{"x_min":13.890625,"x_max":752.78125,"ha":849,"o":"m 315 600 l 441 600 l 441 738 l 315 738 l 315 768 b 383 850 315 829 316 850 l 437 850 l 437 1006 b 337 1009 420 1008 394 1009 b 120 798 204 1009 120 951 l 120 738 l 13 738 l 13 600 l 120 600 l 120 0 l 315 0 l 315 600 m 752 997 l 558 997 l 558 0 l 752 0 l 752 997 "},"Ж":{"x_min":16.671875,"x_max":1372.21875,"ha":1389,"o":"m 797 997 l 595 997 l 595 597 l 554 597 l 256 997 l 25 997 l 381 541 l 16 0 l 265 0 l 554 430 l 595 430 l 595 0 l 797 0 l 797 430 l 837 430 l 1123 0 l 1372 0 l 1012 541 l 1372 997 l 1134 997 l 837 597 l 797 597 l 797 997 "},"®":{"x_min":-15.28125,"x_max":1038.890625,"ha":1024,"o":"m 425 454 l 481 454 l 612 216 l 755 216 l 611 463 b 747 611 686 469 747 506 b 515 781 747 740 661 781 l 304 781 l 304 216 l 425 216 l 425 454 m 425 550 l 425 686 l 509 686 b 618 623 555 686 618 681 b 531 550 618 561 586 550 l 425 550 m 1038 498 b 512 1023 1038 830 790 1023 b -15 498 233 1023 -15 830 b 512 -26 -15 166 233 -26 b 1038 498 790 -26 1038 166 m 887 498 b 512 94 887 256 715 94 l 512 95 l 509 95 b 136 498 302 95 136 258 b 512 901 136 740 304 901 b 887 498 715 901 887 740 "},"Н":{"x_min":97.21875,"x_max":905.5625,"ha":1003,"o":"m 97 0 l 305 0 l 305 445 l 697 445 l 697 0 l 905 0 l 905 997 l 697 997 l 697 618 l 305 618 l 305 997 l 97 997 l 97 0 "},"ф":{"x_min":47.21875,"x_max":1108.328125,"ha":1156,"o":"m 481 -287 l 673 -287 l 673 70 l 676 70 b 843 -23 704 23 758 -23 b 1108 370 981 -23 1108 112 b 838 759 1108 683 944 759 b 676 665 776 759 715 737 l 673 665 l 673 995 l 481 995 l 481 665 l 479 665 b 318 759 440 737 379 759 b 47 370 211 759 47 683 b 312 -23 47 112 173 -23 b 479 70 397 -23 451 23 l 481 70 l 481 -287 m 916 362 b 780 140 916 276 897 140 b 673 286 694 140 673 197 l 673 461 b 777 595 673 540 701 595 b 916 362 887 595 916 481 m 238 362 b 377 595 238 481 268 595 b 481 461 454 595 481 540 l 481 286 b 375 140 481 197 461 140 b 238 362 258 140 238 276 "},"л":{"x_min":47.21875,"x_max":816.671875,"ha":926,"o":"m 816 738 l 193 738 l 181 290 b 106 141 179 197 163 141 b 47 152 79 141 59 147 l 47 -8 b 144 -22 68 -16 101 -22 b 375 312 361 -22 370 163 l 383 583 l 625 583 l 625 0 l 816 0 l 816 738 "},"L":{"x_min":105.5625,"x_max":809.71875,"ha":849,"o":"m 313 997 l 105 997 l 105 0 l 809 0 l 809 180 l 313 180 l 313 997 "},"Щ":{"x_min":97.21875,"x_max":1297.21875,"ha":1311,"o":"m 97 0 l 1116 0 l 1116 -213 l 1297 -213 l 1297 172 l 1213 172 l 1213 997 l 1022 997 l 1022 172 l 751 172 l 751 997 l 559 997 l 559 172 l 288 172 l 288 997 l 97 997 l 97 0 "},"":{"x_min":-126.390625,"x_max":512.5,"ha":386,"o":"m 69 1083 l 183 1083 l 355 1283 l 181 1283 l 69 1083 m 356 1083 l 512 1083 l 512 1238 l 356 1238 l 356 1083 m -126 1083 l 29 1083 l 29 1238 l -126 1238 l -126 1083 "}," ":{"x_min":0,"x_max":0,"ha":386},"∑":{"x_min":32.234375,"x_max":744.859375,"ha":771,"o":"m 744 -134 l 744 25 l 244 25 l 244 29 l 561 450 l 275 825 l 275 829 l 722 829 l 722 975 l 44 975 l 44 855 l 368 420 l 32 -23 l 32 -134 l 744 -134 "},"À":{"x_min":28,"x_max":975,"ha":1003,"o":"m 316 205 l 684 205 l 748 0 l 975 0 l 623 997 l 383 997 l 28 0 l 247 0 l 316 205 m 500 772 l 502 772 l 626 377 l 372 377 l 500 772 m 443 1097 l 583 1097 l 452 1300 l 239 1300 l 443 1097 "},"+":{"x_min":55.5625,"x_max":755.5625,"ha":811,"o":"m 327 429 l 55 429 l 55 273 l 327 273 l 327 0 l 483 0 l 483 273 l 755 273 l 755 429 l 483 429 l 483 702 l 327 702 l 327 429 "},"½":{"x_min":36.21875,"x_max":1102.890625,"ha":1158,"o":"m 189 -26 l 298 -26 l 891 986 l 783 986 l 189 -26 m 36 797 l 189 797 l 189 393 l 329 393 l 329 986 l 211 986 b 54 883 208 941 176 883 l 36 883 l 36 797 m 794 381 b 887 483 795 415 798 483 b 970 416 943 483 970 444 b 969 409 970 415 969 412 b 808 234 969 343 923 312 b 665 0 682 148 669 69 l 1102 0 l 1102 113 l 844 113 b 979 212 858 130 897 162 b 1101 405 1034 245 1101 302 b 882 593 1101 525 1004 593 b 672 381 825 593 672 575 l 794 381 "},"Ë":{"x_min":105.5625,"x_max":862.5,"ha":926,"o":"m 838 997 l 105 997 l 105 0 l 862 0 l 862 176 l 309 176 l 309 434 l 795 434 l 795 611 l 309 611 l 309 820 l 838 820 l 838 997 m 415 1270 l 240 1270 l 240 1111 l 415 1111 l 415 1270 m 686 1270 l 511 1270 l 511 1111 l 686 1111 l 686 1270 "},"'":{"x_min":97.21875,"x_max":233.328125,"ha":331,"o":"m 97 620 l 233 620 l 233 997 l 97 997 l 97 620 "},"Š":{"x_min":53.375,"x_max":874,"ha":926,"o":"m 53 306 b 480 -26 53 183 115 -26 b 874 299 568 -26 874 0 b 612 567 874 479 748 534 l 368 627 b 263 731 327 637 263 654 b 437 851 263 822 357 851 b 641 701 619 851 636 745 l 842 701 b 452 1023 840 823 758 1023 b 68 716 128 1023 68 827 b 385 423 68 497 224 460 l 493 398 b 673 274 598 373 673 352 b 465 145 673 169 563 145 b 253 306 282 145 254 251 l 53 306 m 708 1299 l 551 1299 l 462 1185 l 374 1299 l 217 1299 l 375 1097 l 550 1097 l 708 1299 "},"˛":{"x_min":98.609375,"x_max":422.21875,"ha":463,"o":"m 397 -215 b 293 -238 363 -227 319 -238 b 229 -172 263 -238 229 -218 b 366 -5 229 -130 275 -54 l 366 0 l 250 0 b 98 -187 159 -33 98 -100 b 270 -316 98 -259 169 -316 b 422 -283 318 -316 354 -309 l 397 -215 "},"Р":{"x_min":113.890625,"x_max":879.171875,"ha":926,"o":"m 113 0 l 322 0 l 322 358 l 550 358 b 879 677 755 358 879 491 b 566 997 879 877 777 997 l 113 997 l 113 0 m 322 825 l 519 825 b 670 677 613 825 670 781 b 519 530 670 573 613 530 l 322 530 l 322 825 "},"щ":{"x_min":91.671875,"x_max":1141.671875,"ha":1157,"o":"m 91 0 l 966 0 l 966 -177 l 1141 -177 l 1141 155 l 1066 155 l 1066 738 l 875 738 l 875 155 l 675 155 l 675 738 l 483 738 l 483 155 l 283 155 l 283 738 l 91 738 l 91 0 "},"ð":{"x_min":47,"x_max":803,"ha":849,"o":"m 424 563 b 602 368 576 563 602 421 b 426 145 602 317 591 145 b 247 363 317 145 247 218 b 424 563 247 415 276 563 m 728 951 l 641 1024 l 500 962 b 390 1024 461 990 423 1010 l 240 955 b 341 893 260 946 299 924 l 191 828 l 278 756 l 429 821 b 563 653 484 772 536 713 l 561 650 b 390 726 506 718 422 726 b 47 368 185 726 47 574 b 429 -18 47 82 245 -18 b 803 410 604 -18 803 95 b 587 890 803 615 701 783 l 728 951 "},"℮":{"x_min":46.953125,"x_max":1171.96875,"ha":1221,"o":"m 1171 463 l 1171 477 b 608 984 1171 758 920 984 b 46 477 298 984 46 758 b 608 -26 46 198 298 -26 b 1053 169 790 -26 952 51 l 971 169 b 609 1 884 68 755 1 b 265 151 474 1 353 59 b 253 183 258 159 253 170 l 253 458 b 260 463 253 462 256 463 l 1171 463 m 965 500 b 959 491 965 497 963 491 l 260 491 b 253 500 256 491 253 497 l 253 770 b 267 805 253 784 258 797 b 609 954 355 895 477 954 b 951 809 742 954 863 897 b 965 777 960 801 965 788 l 965 500 "},"ı":{"x_min":95.828125,"x_max":290.28125,"ha":386,"o":"m 95 738 l 95 0 l 290 0 l 290 738 l 95 738 "},"ä":{"x_min":39.953125,"x_max":731.625,"ha":772,"o":"m 688 544 b 394 758 688 726 498 758 b 63 500 242 758 85 726 l 251 500 b 370 603 256 543 273 603 b 498 517 420 603 498 599 b 430 458 498 475 460 463 l 255 432 b 39 196 131 414 39 340 b 264 -18 39 43 153 -18 b 503 88 396 -18 459 42 b 521 0 508 46 510 35 l 731 0 l 731 29 b 688 144 708 38 688 57 l 688 544 m 498 265 b 324 119 498 175 410 119 b 234 208 287 119 234 140 b 366 319 234 289 294 307 b 498 360 446 332 478 344 l 498 265 m 338 1013 l 163 1013 l 163 853 l 338 853 l 338 1013 m 609 1013 l 434 1013 l 434 853 l 609 853 l 609 1013 "},"Т":{"x_min":16.671875,"x_max":833.328125,"ha":850,"o":"m 16 825 l 320 825 l 320 0 l 529 0 l 529 825 l 833 825 l 833 997 l 16 997 l 16 825 "},"¹":{"x_min":36.109375,"x_max":329.171875,"ha":463,"o":"m 36 797 l 188 797 l 188 393 l 329 393 l 329 986 l 211 986 b 54 883 208 941 176 883 l 36 883 l 36 797 "},"£":{"x_min":39.25,"x_max":750.75,"ha":772,"o":"m 521 528 l 322 528 b 256 713 259 670 256 687 b 392 841 256 756 285 841 b 546 676 513 841 532 770 l 728 676 b 393 996 722 932 538 996 b 62 726 145 996 62 826 b 119 528 62 656 75 624 l 39 528 l 39 445 l 166 445 b 198 321 180 419 198 362 b 44 119 198 221 66 127 l 119 -15 b 270 33 209 25 234 33 b 404 2 311 33 345 23 b 539 -21 439 -9 502 -21 b 750 40 629 -21 700 9 l 693 191 b 553 141 660 169 600 141 b 479 160 536 141 504 152 b 381 176 447 170 421 176 b 224 139 331 176 284 163 l 221 142 b 303 217 257 171 292 203 b 363 371 363 287 363 352 b 356 445 363 396 360 420 l 521 445 l 521 528 "},"W":{"x_min":21.9375,"x_max":1290,"ha":1311,"o":"m 303 0 l 498 0 b 652 777 605 513 621 586 l 655 777 b 809 0 688 586 706 488 l 1009 0 l 1290 997 l 1078 997 b 916 268 949 448 933 362 l 913 268 b 765 997 891 397 881 450 l 544 997 b 405 268 438 473 423 372 l 402 268 b 244 997 384 381 371 451 l 21 997 l 303 0 "},"а":{"x_min":38.890625,"x_max":733.328125,"ha":772,"o":"m 688 537 b 375 761 688 643 638 761 b 59 504 97 758 61 558 l 251 504 b 379 605 259 561 276 605 b 497 522 469 605 497 570 b 429 461 497 472 455 465 l 241 433 b 38 205 116 415 38 327 b 266 -22 38 55 134 -22 b 502 86 397 -22 443 25 b 520 0 502 45 513 16 l 733 0 l 733 30 b 688 145 709 37 688 57 l 688 537 m 497 286 b 327 114 497 136 372 114 b 230 205 273 114 230 141 b 363 320 230 280 275 304 l 415 330 b 497 361 454 337 473 348 l 497 286 "},"ә":{"x_min":36,"x_max":736,"ha":772,"o":"m 36 429 b 386 -22 36 156 123 -22 b 736 361 633 -22 736 159 b 391 761 736 650 591 761 b 45 519 149 761 66 625 l 244 519 b 383 605 266 573 324 605 b 542 429 526 605 542 469 l 36 429 m 536 301 b 386 133 536 170 449 133 b 236 301 322 133 236 170 l 536 301 "},"v":{"x_min":18,"x_max":754,"ha":772,"o":"m 754 738 l 547 738 l 390 194 l 387 194 l 234 738 l 18 738 l 283 0 l 487 0 l 754 738 "},">":{"x_min":52.78125,"x_max":758.328125,"ha":811,"o":"m 52 139 l 52 -11 l 758 289 l 758 414 l 52 714 l 52 564 l 556 351 l 52 139 "},"Ї":{"x_min":-33.328125,"x_max":419.4375,"ha":386,"o":"m 88 0 l 297 0 l 297 997 l 88 997 l 88 0 m -33 1083 l 147 1083 l 147 1247 l -33 1247 l -33 1083 m 238 1083 l 419 1083 l 419 1247 l 238 1247 l 238 1083 "},"û":{"x_min":91.796875,"x_max":757.078125,"ha":849,"o":"m 757 739 l 562 739 l 562 312 b 412 144 562 180 476 144 b 286 280 352 144 286 166 l 286 739 l 91 739 l 91 253 b 343 -19 91 64 197 -19 b 568 104 445 -19 523 25 l 570 104 l 570 0 l 757 0 l 757 739 m 511 1041 l 337 1041 l 179 839 l 336 839 l 423 953 l 512 839 l 669 839 l 511 1041 "},"Ð":{"x_min":-6.9375,"x_max":951.390625,"ha":1003,"o":"m 105 438 l 105 0 l 537 0 b 951 522 866 0 951 308 b 545 997 951 711 881 997 l 105 997 l 105 611 l -6 611 l -6 438 l 105 438 m 309 825 l 509 825 b 738 506 598 825 738 801 b 512 172 738 343 681 172 l 309 172 l 309 438 l 540 438 l 540 611 l 309 611 l 309 825 "},"ˉ":{"x_min":-8.328125,"x_max":470.828125,"ha":463,"o":"m 470 941 l -8 941 l -8 838 l 470 838 l 470 941 "},"Х":{"x_min":18,"x_max":908,"ha":926,"o":"m 18 0 l 262 0 l 463 340 l 652 0 l 908 0 l 581 518 l 887 997 l 646 997 l 463 675 l 284 997 l 36 997 l 341 509 l 18 0 "},"r":{"x_min":88.890625,"x_max":518.0625,"ha":540,"o":"m 88 0 l 283 0 l 283 384 b 462 561 283 466 311 561 b 518 558 480 561 501 561 l 518 755 b 480 758 505 756 493 758 b 277 611 362 758 318 686 l 275 611 l 275 738 l 88 738 l 88 0 "},"ж":{"x_min":11.109375,"x_max":1147.21875,"ha":1158,"o":"m 676 738 l 484 738 l 484 445 l 448 445 l 247 738 l 27 738 l 273 397 l 11 0 l 234 0 l 443 313 l 484 313 l 484 0 l 676 0 l 676 313 l 712 313 l 915 0 l 1147 0 l 886 397 l 1134 738 l 915 738 l 712 445 l 676 445 l 676 738 "},"x":{"x_min":21,"x_max":751.984375,"ha":772,"o":"m 500 376 l 743 738 l 514 738 l 392 523 l 266 738 l 30 738 l 272 376 l 21 0 l 255 0 l 383 222 l 511 0 l 751 0 l 500 376 "},"Ѳ":{"x_min":61.109375,"x_max":1019.453125,"ha":1081,"o":"m 61 498 b 540 -25 61 201 219 -25 b 1019 498 836 -25 1019 201 b 540 1022 1019 795 836 1022 b 61 498 219 1022 61 795 m 811 416 b 538 155 811 297 709 155 b 269 416 370 155 269 297 l 811 416 m 275 580 b 538 841 275 700 376 841 b 804 580 702 841 804 700 l 275 580 "},"è":{"x_min":32,"x_max":733.390625,"ha":772,"o":"m 525 216 b 400 136 509 163 454 136 b 226 316 243 136 232 261 l 733 316 l 733 351 b 386 758 733 688 532 758 b 32 384 62 758 32 473 b 400 -19 32 80 191 -19 b 725 216 526 -19 673 38 l 525 216 m 232 443 b 383 598 243 540 291 598 b 533 443 445 598 522 562 l 232 443 m 327 838 l 468 838 l 337 1041 l 123 1041 l 327 838 "},"Ø":{"x_min":45.546875,"x_max":1033.0625,"ha":1081,"o":"m 1033 981 l 974 1034 l 862 910 b 540 1023 751 1005 613 1023 b 60 498 408 1023 60 966 b 163 144 60 334 103 220 l 45 15 l 103 -37 l 217 87 b 540 -26 327 -9 466 -26 b 1019 498 671 -26 1019 30 b 916 853 1019 662 977 774 l 1033 981 m 306 302 b 269 498 283 351 269 415 b 540 846 269 777 427 846 b 728 765 599 846 671 827 l 306 302 m 771 695 b 810 498 796 648 810 583 b 540 150 810 219 652 150 b 349 233 478 150 405 170 l 771 695 "},"с":{"x_min":47.21875,"x_max":725,"ha":772,"o":"m 725 477 b 394 761 706 700 530 761 b 47 369 184 761 47 620 b 394 -22 47 118 169 -22 b 725 270 654 -22 725 195 l 525 270 b 394 141 525 222 483 141 b 247 369 259 141 247 272 b 394 597 247 463 266 597 b 525 477 477 597 509 555 l 725 477 "},"÷":{"x_min":55.5625,"x_max":755.5625,"ha":811,"o":"m 755 273 l 755 429 l 55 429 l 55 273 l 755 273 m 283 637 b 408 515 283 570 340 515 b 529 637 472 515 529 576 b 406 761 529 704 472 761 b 283 637 340 761 283 705 m 283 63 b 408 -58 283 -2 340 -58 b 529 63 472 -58 529 2 b 406 187 529 130 472 187 b 283 63 340 187 283 131 "},"μ":{"x_min":90.28125,"x_max":758.328125,"ha":849,"o":"m 758 0 l 758 739 l 563 739 l 563 340 b 412 144 563 185 476 144 b 284 308 352 144 284 172 l 284 739 l 90 739 l 90 -287 l 284 -287 l 284 60 b 412 -18 313 0 361 -18 b 569 104 486 -18 534 25 l 572 104 l 572 0 l 758 0 "},"h":{"x_min":90.28125,"x_max":758.328125,"ha":849,"o":"m 758 511 b 501 758 758 673 645 758 b 287 643 395 758 312 704 l 284 643 l 284 997 l 90 997 l 90 0 l 284 0 l 284 423 b 437 594 284 536 351 594 b 563 448 561 594 563 502 l 563 0 l 758 0 l 758 511 "},".":{"x_min":88.890625,"x_max":297.21875,"ha":386,"o":"m 297 202 l 88 202 l 88 0 l 297 0 l 297 202 "},"f":{"x_min":13.890625,"x_max":441.671875,"ha":463,"o":"m 315 600 l 441 600 l 441 738 l 315 738 l 315 768 b 383 850 315 829 316 850 l 437 850 l 437 1006 b 337 1009 420 1008 394 1009 b 120 798 204 1009 120 951 l 120 738 l 13 738 l 13 600 l 120 600 l 120 0 l 315 0 l 315 600 "},"“":{"x_min":88.890625,"x_max":605.5625,"ha":694,"o":"m 283 807 l 176 807 b 279 939 179 860 187 910 l 279 1010 b 88 772 200 993 88 947 l 88 630 l 283 630 l 283 807 m 605 807 l 498 807 b 601 939 501 860 509 910 l 601 1010 b 411 772 522 993 411 947 l 411 630 l 605 630 l 605 807 "},"A":{"x_min":28,"x_max":975,"ha":1003,"o":"m 316 205 l 684 205 l 748 0 l 975 0 l 623 997 l 383 997 l 28 0 l 247 0 l 316 205 m 500 772 l 502 772 l 626 377 l 372 377 l 500 772 "},"‘":{"x_min":95.828125,"x_max":290.28125,"ha":386,"o":"m 290 807 l 183 807 b 286 939 186 860 194 910 l 286 1010 b 95 772 206 993 95 947 l 95 630 l 290 630 l 290 807 "},"O":{"x_min":61.109375,"x_max":1019.453125,"ha":1081,"o":"m 61 498 b 540 -26 61 30 408 -26 b 1019 498 672 -26 1019 30 b 540 1023 1019 966 672 1023 b 61 498 408 1023 61 966 m 269 498 b 540 847 269 777 427 847 b 811 498 652 847 811 777 b 540 150 811 219 652 150 b 269 498 427 150 269 219 "},"π":{"x_min":6.9375,"x_max":811.109375,"ha":829,"o":"m 797 584 l 811 733 l 231 733 b 6 686 113 733 41 713 l 26 570 b 162 584 55 580 95 584 b 76 0 159 430 123 162 l 243 0 b 333 584 291 145 326 433 l 526 584 l 526 198 b 550 0 526 98 534 29 l 716 0 b 698 206 706 43 698 104 l 698 584 l 797 584 "},"3":{"x_min":38.75,"x_max":717.921875,"ha":772,"o":"m 297 430 b 517 290 387 430 517 424 b 372 127 517 180 449 127 b 227 300 241 127 227 247 l 229 301 l 38 301 b 381 -27 38 -6 288 -27 b 717 290 580 -27 717 104 b 569 519 717 458 604 509 l 569 522 b 687 709 624 547 687 609 b 381 984 687 918 513 984 b 55 668 159 984 55 852 l 235 668 b 369 829 235 702 235 829 b 492 702 476 829 492 738 b 327 569 492 575 385 569 l 297 569 l 297 430 "},"9":{"x_min":41.96875,"x_max":725.296875,"ha":772,"o":"m 236 660 b 376 827 236 802 326 827 b 525 645 476 827 525 757 b 382 479 525 528 450 479 b 236 660 308 479 236 511 m 61 228 b 366 -25 78 71 198 -25 b 725 479 544 -25 725 97 b 378 986 725 618 719 986 b 41 632 185 986 41 874 b 340 324 41 467 151 324 b 528 407 407 324 483 340 l 530 404 b 368 129 529 197 448 129 b 254 227 308 129 265 158 l 254 228 l 61 228 "},"l":{"x_min":95.828125,"x_max":290.28125,"ha":386,"o":"m 290 997 l 95 997 l 95 0 l 290 0 l 290 997 "},"4":{"x_min":37.9375,"x_max":731,"ha":772,"o":"m 181 369 l 428 793 l 431 793 b 426 369 431 762 426 608 l 181 369 m 731 369 l 621 369 l 621 986 l 400 986 l 37 386 l 37 218 l 426 218 l 426 0 l 621 0 l 621 218 l 731 218 l 731 369 "},"Ъ":{"x_min":31.9375,"x_max":1095.828125,"ha":1157,"o":"m 537 440 l 706 440 b 887 305 793 440 887 430 b 715 172 887 186 790 172 l 537 172 l 537 440 m 31 825 l 329 825 l 329 0 l 768 0 b 1095 301 826 0 1095 0 b 737 604 1095 604 826 604 l 537 604 l 537 997 l 31 997 l 31 825 "},"Ü":{"x_min":100,"x_max":904.171875,"ha":1003,"o":"m 904 997 l 691 997 l 691 340 b 490 150 691 219 633 150 b 312 350 393 150 312 211 l 312 997 l 100 997 l 100 336 b 177 94 102 236 123 155 b 494 -26 266 -4 402 -26 b 904 348 745 -26 904 86 l 904 997 m 454 1270 l 279 1270 l 279 1111 l 454 1111 l 454 1270 m 725 1270 l 550 1270 l 550 1111 l 725 1111 l 725 1270 "},"à":{"x_min":39.953125,"x_max":731.625,"ha":772,"o":"m 688 544 b 394 758 688 726 498 758 b 63 500 242 758 85 726 l 251 500 b 370 603 256 543 273 603 b 498 517 420 603 498 599 b 430 458 498 475 460 463 l 255 432 b 39 196 131 414 39 340 b 264 -18 39 43 153 -18 b 503 88 396 -18 459 42 b 521 0 508 46 510 35 l 731 0 l 731 29 b 688 144 708 38 688 57 l 688 544 m 498 265 b 324 119 498 175 410 119 b 234 208 287 119 234 140 b 366 319 234 289 294 307 b 498 360 446 332 478 344 l 498 265 m 327 839 l 467 839 l 337 1042 l 123 1042 l 327 839 "},"ó":{"x_min":47.4375,"x_max":803,"ha":849,"o":"m 803 369 b 425 758 803 636 623 758 b 47 369 226 758 47 636 b 425 -19 47 102 226 -19 b 803 369 623 -19 803 102 m 603 369 b 425 144 603 275 575 144 b 247 369 275 144 247 275 b 425 594 247 463 275 594 b 603 369 575 594 603 463 m 687 1041 l 473 1041 l 343 838 l 483 838 l 687 1041 "}}}
